<svg width="630" height="373" viewBox="0 0 630 373" fill="none" xmlns="http://www.w3.org/2000/svg">
<path d="M12.3 118.078C18.0548 141.604 35.0368 164.324 30.3092 187.982C26.4911 207.094 9.00938 223.089 2.49191 241.775C-8.52297 273.354 18.1561 309.732 59.3006 319.231C81.2879 324.308 106.353 322.679 125.632 332.181C137.371 337.966 145.409 347.214 156.445 353.749C186.582 371.591 229.328 365.294 267.487 363.829C321.556 361.75 375.213 371.266 429.312 372.82C483.412 374.375 542.255 366.169 578.938 335.921C601.6 317.236 613.162 292.139 618.428 267.049C623.697 241.958 623.233 216.408 625.07 191.039C627.299 160.3 632.913 129.426 628.116 98.8564C623.316 68.2867 606.266 37.1016 572.718 19.8329C541.494 3.75897 501.565 2.1412 463.862 1.32858C380.104 -0.476593 296.19 -0.915802 212.521 3.07416C162.15 5.47729 77.847 -0.44931 42.8052 33.4689C18.241 57.2448 4.92351 87.9337 12.3 118.078Z" fill="#606060"/>
</svg>
