<svg width="80" height="243" viewBox="0 0 80 243" fill="none" xmlns="http://www.w3.org/2000/svg">
<path d="M42.6291 6.76262C42.752 9.0375 41.9568 11.3214 41.0783 13.4473C39.0446 18.383 36.6382 23.8084 33.4865 27.4667C34.7709 22.0932 36.2218 16.7604 37.883 11.4974C37.9975 11.1318 37.806 10.7369 37.4542 10.6173C37.1024 10.4977 36.7235 10.6985 36.6069 11.0619C34.8958 16.4918 33.4054 21.9872 32.0918 27.5322C31.4007 25.5891 31.1738 22.7838 31.0281 20.9152L30.9594 20.0531C30.6742 16.7558 30.7908 13.4473 31.3071 10.2201C31.6318 8.17088 32.2084 5.56878 33.7613 3.64371C35.0061 2.10681 37.3209 0.820422 39.463 1.63739C41.503 2.40923 42.523 4.76759 42.6291 6.76262ZM44.9419 30.4864C46.8174 28.8705 48.285 28.3356 49.432 28.8457C50.6518 29.3873 51.0848 31.0393 50.8766 32.3144C50.6331 33.7971 49.7151 35.1467 48.7992 36.4015C43.0684 44.2349 36.201 50.9986 28.3948 56.5572C28.4552 56.0314 28.5218 55.5078 28.5843 54.9819C30.9906 52.2805 33.3512 49.5881 35.7077 46.8935C38.1307 44.1243 40.5517 41.353 43.0309 38.5771C43.0663 38.5387 43.0954 38.4981 43.1183 38.4529C43.2745 38.1776 43.2307 37.8188 42.9955 37.5909C42.7228 37.3313 42.3002 37.3494 42.0484 37.6292C39.565 40.4096 37.1378 43.1855 34.7126 45.9569C32.8974 48.0309 31.0656 50.1094 29.2275 52.1857C32.7663 43.8152 38.1661 36.327 44.9419 30.4864ZM42.4605 62.8357C43.2266 62.4588 44.0946 62.1158 44.7254 62.443C45.1875 62.68 45.5039 63.3254 45.4893 64.0273C45.4914 64.763 45.2021 65.51 44.8815 66.2683C41.3323 74.4967 34.7792 81.2017 26.8044 84.8442C26.8065 84.2214 26.819 83.5985 26.8253 82.9779C32.6622 79.0149 37.6082 73.6323 41.1283 67.3809C41.3156 67.0514 41.2095 66.6226 40.8889 66.4286C40.5704 66.2367 40.1582 66.345 39.9709 66.6791C36.7069 72.4723 32.1772 77.487 26.8419 81.2785C26.8461 80.958 26.844 80.6398 26.8502 80.3238C29.5606 72.8582 35.3642 66.3338 42.4605 62.8357ZM38.0974 90.5833C38.7698 89.9966 39.5088 89.4166 40.3497 89.148C41.147 88.893 41.9672 89.0284 42.4397 89.5046C43.2932 90.3373 43.0059 91.9623 42.6125 93.1742C40.2436 100.448 34.7917 106.444 27.9285 109.41C27.8703 108.778 27.8307 108.146 27.7745 107.516C32.0148 103.569 35.7701 99.078 38.9342 94.1649C38.9425 94.1536 38.9488 94.1424 38.955 94.1288C39.132 93.8129 39.0446 93.4044 38.749 93.199C38.4409 92.9846 38.0245 93.0704 37.8164 93.3908C34.9104 97.909 31.4778 102.041 27.6371 105.731C27.6038 105.336 27.5747 104.944 27.5434 104.549C30.083 98.3852 34.6606 93.5601 38.0974 90.5833ZM40.5059 117.142C41.861 116.094 42.8685 115.747 43.6825 116.045C44.6983 116.41 45.1001 117.812 44.8857 118.902C44.6359 120.211 43.7262 121.339 42.8914 122.298C39.4671 126.291 35.5162 129.726 31.1384 132.538C31.0385 131.98 30.9407 131.421 30.8408 130.861C30.8949 130.829 30.9511 130.795 30.9948 130.748C34.1527 127.207 37.6623 123.978 41.426 121.148C41.503 121.087 41.5654 121.017 41.6112 120.935C41.7403 120.703 41.7361 120.403 41.5738 120.175C41.3573 119.863 40.9389 119.793 40.637 120.021C37.1461 122.646 33.8883 125.621 30.9011 128.85C32.9266 124.56 36.2926 120.434 40.5059 117.142ZM11.3919 121.375C10.4573 120.15 10.145 119.173 10.4593 118.464C10.7008 117.902 11.342 117.607 11.8478 117.525C12.4785 117.421 13.1447 117.532 13.9523 117.728C19.8101 119.155 25.2432 122.838 28.857 127.832C28.8965 127.886 28.9506 127.925 29.0006 127.963C29.0693 128.383 29.1401 128.8 29.2108 129.22L15.0098 120.344C14.6934 120.145 14.2812 120.252 14.0897 120.581C13.867 120.956 14.0002 121.339 14.3166 121.536L29.5127 131.035C29.5626 131.317 29.6022 131.601 29.6563 131.883C22.5891 131.037 15.8009 127.162 11.3919 121.375ZM26.4964 108.717C19.0357 108.074 11.7437 104.535 6.49171 99.0081C5.85681 98.3468 3.86259 96.0539 4.77643 94.2665C5.29268 93.2148 6.70821 92.8785 7.75944 93.041C9.03549 93.2374 10.2116 94.0069 11.3461 94.7472L26.1321 104.422C26.0592 104.65 26.1071 104.887 26.2424 105.065C26.257 105.259 26.2736 105.451 26.2861 105.645C20.343 103.395 14.6809 100.389 9.45598 96.6858C9.15206 96.4669 8.73365 96.5481 8.52549 96.8663C8.31316 97.18 8.39434 97.6179 8.70034 97.8345C14.1876 101.725 20.1432 104.867 26.4069 107.178C26.4527 107.695 26.4818 108.211 26.5276 108.728C26.5172 108.726 26.5089 108.719 26.4964 108.717ZM25.4764 82.6958C17.0665 83.1765 8.65038 79.1706 3.51495 72.2399C2.39086 70.7278 1.76429 69.5046 1.48326 68.2679C1.14604 66.7648 1.41457 65.2798 2.19102 64.3139C3.25475 63.0072 5.0408 62.759 6.36057 62.9576C8.03005 63.2171 9.5788 64.1266 10.8965 64.9571C16.5565 68.559 21.4775 73.1494 25.5326 78.5973C25.5201 79.0735 25.5242 79.5475 25.5138 80.0237C25.4993 80.0665 25.4805 80.1117 25.4639 80.1568C25.4222 80.2764 25.4222 80.3938 25.4431 80.5111C19.196 77.2139 13.3882 73.0884 8.18201 68.2137C7.90723 67.9564 7.48258 67.9812 7.23486 68.2656C6.98715 68.5522 7.00796 68.9923 7.28482 69.2496C12.7616 74.3748 18.89 78.6989 25.4951 82.1067C25.493 82.3031 25.4909 82.4994 25.4888 82.6958C25.4847 82.6958 25.4805 82.6958 25.4764 82.6958ZM9.23949 39.446C7.57625 37.223 6.00461 34.7834 5.77354 32.03C5.56122 29.5453 6.8789 26.5437 9.36855 26.0269C10.6571 25.7583 12.1517 26.2007 13.4715 27.241C14.6851 28.2002 15.6093 29.4821 16.6064 30.9377C20.7448 36.9815 24.5375 43.3661 27.8952 49.9154C27.7641 50.8474 27.6475 51.7818 27.5268 52.7161C27.5143 52.7499 27.4976 52.7815 27.4851 52.8154C27.4539 52.8899 27.4435 52.9711 27.4414 53.0501C21.821 48.383 16.9478 42.5468 13.3299 36.1036C13.1426 35.7718 12.7325 35.6613 12.4098 35.8531C12.0934 36.0472 11.981 36.4715 12.1684 36.8055C16.0049 43.6346 21.209 49.8093 27.2208 54.6637C27.2249 54.666 27.2291 54.666 27.2333 54.6682C27.2249 54.7427 27.2291 54.8127 27.2437 54.8849C27.202 55.2302 27.15 55.571 27.1125 55.914C20.2889 51.6418 14.1168 45.9727 9.23949 39.446ZM42.1816 139.448C43.0517 138.288 43.8323 137.415 44.8211 136.905C45.6788 136.469 46.9652 136.343 47.7625 137.092C49.0344 138.293 48.2767 140.732 47.8895 141.73C45.7246 147.376 41.5155 152.122 36.2801 154.921C36.1948 154.609 36.1011 154.298 36.0157 153.982C36.0511 153.95 36.0907 153.926 36.1219 153.883L45.4477 140.804C45.4602 140.784 45.4748 140.764 45.4873 140.741C45.6579 140.437 45.5851 140.046 45.3062 139.832C45.0106 139.602 44.588 139.667 44.3673 139.976L35.5807 152.298C35.5619 152.224 35.5432 152.147 35.5245 152.073C37.0857 147.528 39.3172 143.278 42.1816 139.448ZM49.6672 155.266C50.273 154.291 50.9391 153.287 51.8446 152.66C52.5898 152.147 53.7181 151.856 54.5591 152.364C55.219 152.761 55.6582 153.666 55.679 154.664C55.6977 155.686 55.3439 156.711 54.9608 157.667C52.2818 164.318 47.2587 169.866 42.6437 174.785C42.6083 174.693 42.5792 174.6 42.5459 174.508L51.574 158.559C51.7613 158.227 51.6552 157.801 51.3367 157.606C51.0161 157.412 50.6039 157.523 50.4166 157.855L42.2878 172.215C43.9302 166.214 46.4032 160.513 49.6672 155.266ZM55.246 175.494C55.7352 174.903 56.9842 173.576 58.0042 174.045C58.4164 174.239 58.7411 174.763 58.8265 175.374C58.9056 175.991 58.7952 176.65 58.6037 177.446C57.2007 183.215 54.1532 188.624 50.0211 192.768C49.8691 192.434 49.7109 192.1 49.561 191.764L56.4097 180.069C56.4118 180.066 56.4138 180.062 56.4159 180.06C56.5991 179.732 56.4971 179.31 56.1849 179.112C55.8664 178.911 55.4542 179.017 55.2627 179.346L48.8699 190.26C48.7471 189.983 48.6264 189.703 48.5036 189.423C49.6193 184.293 51.9445 179.482 55.246 175.494ZM63.15 194.411C63.5289 193.614 63.991 192.714 64.6801 192.134C65.2234 191.678 66.0727 191.373 66.7451 191.718C67.3633 192.037 67.6506 192.804 67.713 193.413C67.7921 194.199 67.6027 195.029 67.3883 195.882C65.8479 201.935 63.5143 207.733 60.4689 213.124C60.371 212.957 60.2753 212.79 60.1775 212.621C60.1941 212.599 60.2128 212.585 60.2253 212.562C60.2482 212.522 60.267 212.479 60.2795 212.436L65.3899 196.853C65.5086 196.489 65.3212 196.097 64.9694 195.973C64.6197 195.846 64.2408 196.047 64.1201 196.406L59.3094 211.077C59.376 205.329 60.702 199.57 63.15 194.411ZM37.2481 207.191C35.9928 206.268 35.4017 205.406 35.4974 204.623C35.5828 203.91 36.2468 203.37 36.863 203.163C37.6561 202.892 38.5783 202.973 39.3776 203.07C46.3553 203.921 52.671 206.706 57.3027 210.904C52.4129 208.967 47.4045 207.27 42.3627 205.882C42.0026 205.787 41.6362 206.013 41.5425 206.379C41.4489 206.751 41.6612 207.133 42.0192 207.23C47.7063 208.796 53.3642 210.739 58.8369 213.005C58.9222 213.154 59.0076 213.303 59.0929 213.449C51.7676 214.02 43.3098 211.635 37.2481 207.191ZM28.7362 185.627C27.7495 185.052 26.6088 184.163 26.7795 183.179C26.8898 182.547 27.5351 182.122 28.0909 181.996C28.8216 181.827 29.6334 181.987 30.4015 182.165C37.3605 183.777 43.1183 186.6 47.5231 190.554C47.5502 190.622 47.5835 190.685 47.6126 190.752C42.6146 189.459 37.7956 187.523 33.2846 184.93C32.9599 184.743 32.5373 184.86 32.3729 185.201C32.1918 185.539 32.3104 185.961 32.6352 186.149C37.5728 188.988 42.8665 191.091 48.3703 192.402C48.4203 192.517 48.4765 192.63 48.5265 192.745C41.5571 191.59 34.9021 189.207 28.7362 185.627ZM23.0325 165.406C22.1436 164.783 21.311 164.086 21.2235 163.226C21.1236 162.226 22.1603 161.326 23.1574 161.188C24.2482 161.035 25.3598 161.445 26.692 162.109C31.4944 164.499 36.5507 168.55 40.3206 172.994L26.8398 164.363C26.5234 164.16 26.1092 164.262 25.9156 164.591C25.7199 164.921 25.8198 165.347 26.1342 165.546L41.4093 175.327C41.4322 175.388 41.4509 175.449 41.4718 175.508C34.6856 173.553 28.5093 169.252 23.0325 165.406ZM17.0665 146.356C16.29 145.851 15.4865 145.293 14.9432 144.542C14.5269 143.964 14.1792 143.059 14.4499 142.247C14.7788 141.258 15.8987 140.78 16.8042 140.755C17.9345 140.728 19.0919 141.233 20.0911 141.709C25.1516 144.12 30.0726 147.573 33.9424 151.427C33.9528 151.436 33.9674 151.439 33.9799 151.448C33.9903 151.495 34.0007 151.54 34.0132 151.588L19.6082 144.379C19.2751 144.21 18.8754 144.352 18.7131 144.704C18.5528 145.05 18.6923 145.467 19.0253 145.634L33.6135 152.933C27.6225 151.707 21.669 149.358 17.0665 146.356ZM39.9251 0.326174C37.5666 -0.569786 34.6106 0.425459 32.733 2.75224C30.9657 4.93459 30.3349 7.76692 29.981 9.9944C29.4481 13.3368 29.3274 16.7626 29.623 20.1749L29.6896 21.028C29.8978 23.6595 30.2163 27.5209 31.6235 29.5904C30.2683 35.5529 29.1192 41.5651 28.2137 47.6224C25.0434 41.599 21.5254 35.7154 17.6993 30.1298C16.6772 28.638 15.6447 27.2095 14.2854 26.133C12.6596 24.8533 10.7695 24.314 9.10627 24.6615C5.88804 25.3295 4.17484 29.0713 4.43504 32.1519C4.69941 35.2731 6.47506 38.0219 8.17785 40.299C13.2862 47.135 19.7747 53.0546 26.9585 57.4531C26.2715 63.7723 25.8282 70.123 25.6158 76.4872C21.6565 71.4568 16.952 67.1778 11.5959 63.7678C10.1617 62.865 8.47552 61.8765 6.55624 61.5809C4.42047 61.2537 2.35339 61.9555 1.16477 63.4179C0.117701 64.7246 -0.256993 66.6565 0.178071 68.5861C0.594401 70.4299 1.61233 71.9623 2.45123 73.0907C7.83646 80.3554 16.6522 84.5666 25.4743 84.0882C25.4722 84.596 25.4576 85.106 25.4597 85.6138C25.3681 85.7921 25.339 86.002 25.416 86.2028C25.4264 86.2254 25.4431 86.2389 25.4535 86.2593C25.4784 91.7501 25.6887 97.2455 26.0592 102.727L12.0601 93.5714C10.8673 92.7905 9.51427 91.9058 7.95928 91.6644C6.4022 91.4229 4.44961 91.9239 3.59198 93.6143C2.6698 95.4152 3.37965 97.7397 5.53624 99.9875C11.011 105.745 18.609 109.435 26.386 110.105C26.4818 110.114 26.5671 110.078 26.6525 110.048C26.6546 110.076 26.6587 110.105 26.6608 110.134C26.5796 110.299 26.5588 110.498 26.6275 110.687C26.6525 110.759 26.6983 110.816 26.7399 110.874C27.2166 115.686 27.814 120.484 28.551 125.259C24.8144 120.897 19.7164 117.701 14.2583 116.372C13.4257 116.171 12.5327 116.002 11.6376 116.151C10.5384 116.331 9.63917 116.977 9.23949 117.882C8.69618 119.103 9.06671 120.57 10.3386 122.24C15.0556 128.428 22.3643 132.551 29.929 133.33C29.9394 133.38 29.9498 133.427 29.9581 133.474C29.8895 133.666 29.8936 133.883 29.9998 134.072C30.0248 134.12 30.0643 134.149 30.0976 134.187C31.0385 139.143 32.1168 144.072 33.3387 148.963C29.6355 145.596 25.1974 142.61 20.649 140.441C19.5166 139.902 18.1885 139.328 16.7688 139.365C15.3741 139.398 13.7213 140.161 13.1821 141.793C12.8054 142.917 13.0635 144.257 13.8712 145.377C14.5498 146.318 15.4678 146.959 16.3525 147.534C21.4546 150.865 28.1638 153.422 34.7834 154.58C34.8958 154.986 35.0228 155.386 35.1352 155.792C35.0894 155.95 35.0915 156.126 35.1623 156.286C35.2081 156.383 35.2726 156.46 35.3455 156.521C36.634 161.1 38.037 165.639 39.5691 170.13C35.9429 166.331 31.5152 162.964 27.2707 160.852C25.9322 160.184 24.4834 159.599 22.9805 159.807C21.3339 160.035 19.6998 161.522 19.8892 163.375C20.0349 164.797 21.1257 165.745 22.281 166.559C28.0992 170.644 34.6877 175.259 42.0713 177.13C43.4202 180.737 44.8648 184.302 46.374 187.837C42.1129 184.598 36.8567 182.233 30.6951 180.804C29.8187 180.604 28.7987 180.405 27.8016 180.635C26.792 180.868 25.6741 181.664 25.4576 182.933C25.2869 183.921 25.6033 185.404 28.0805 186.841C34.6127 190.635 41.6799 193.129 49.0885 194.257C49.1301 194.262 49.1697 194.237 49.2113 194.235C51.3887 198.97 53.7098 203.623 56.1765 208.198C51.5969 204.747 45.8182 202.454 39.5337 201.689C38.5928 201.574 37.4979 201.481 36.4446 201.84C35.2018 202.265 34.3088 203.287 34.1672 204.449C34.0007 205.799 34.7564 207.069 36.4737 208.326C42.9497 213.075 52.0653 215.591 59.8298 214.812C59.8735 214.919 59.9422 215.013 60.038 215.09C65.5856 224.612 71.7514 233.736 78.5626 242.328C78.7978 242.626 79.2204 242.666 79.5077 242.422C79.568 242.368 79.6221 242.305 79.6596 242.237C79.797 241.991 79.7824 241.675 79.5992 241.443C72.8568 232.939 66.7534 223.914 61.2578 214.494C61.3973 214.255 61.5347 214.018 61.6679 213.779C64.7633 208.288 67.1218 202.393 68.6852 196.237C68.935 195.255 69.1494 194.289 69.0474 193.271C68.9204 192.019 68.2647 190.944 67.3404 190.468C66.2788 189.924 64.9028 190.154 63.8349 191.05C62.9356 191.809 62.3861 192.865 61.9469 193.797C59.7257 198.473 58.3976 203.628 58.0521 208.836C55.4167 204.018 52.9458 199.103 50.6331 194.102C52.9021 191.892 54.8672 189.322 56.4492 186.516C57.9876 183.783 59.1637 180.829 59.9068 177.783C60.1046 176.961 60.2711 176.074 60.1566 175.18C60.0005 174.086 59.3864 173.163 58.5496 172.775C57.2319 172.165 55.6957 172.808 54.226 174.587C51.166 178.284 48.9074 182.655 47.6251 187.34C46.0576 183.673 44.5588 179.972 43.1641 176.228C47.0318 172.113 51.2493 167.566 54.2427 162.251C54.9775 160.949 55.6353 159.604 56.1994 158.205C56.6386 157.108 57.0446 155.916 57.0196 154.634C56.9905 153.138 56.3056 151.806 55.2356 151.159C54.0532 150.448 52.4337 150.583 51.0994 151.504C49.9815 152.276 49.2217 153.411 48.539 154.512C45.379 159.595 42.9352 165.092 41.2594 170.874C39.5899 166.063 38.062 161.199 36.6756 156.289C41.1657 153.944 44.9585 150.242 47.4794 145.769C48.1164 144.641 48.6701 143.461 49.1364 142.247C49.7442 140.678 50.4915 137.789 48.6639 136.061C47.3961 134.869 45.5247 134.995 44.2279 135.654C42.9372 136.32 41.9755 137.46 41.122 138.593C38.5533 142.03 36.5008 145.801 34.9416 149.809C33.6094 144.576 32.4353 139.304 31.4257 133.991C36.0803 131.062 40.2748 127.446 43.8885 123.226C44.4443 122.59 45.0293 121.885 45.4852 121.075C45.8099 120.498 46.0701 119.868 46.2033 119.177C46.5343 117.478 45.8453 115.347 44.1259 114.731C42.4585 114.117 40.8035 115.176 39.7023 116.027C35.6702 119.177 32.377 123.07 30.2267 127.164C29.3441 121.743 28.6238 116.3 28.0826 110.836C33.7759 108.473 38.5845 104.149 41.6424 98.7169C42.55 97.1056 43.3057 95.3971 43.8865 93.6188C44.8211 90.7188 44.1175 89.2293 43.3661 88.498C42.5396 87.6675 41.2303 87.4057 39.9542 87.8165C38.8822 88.1573 37.9787 88.8681 37.2356 89.5159C34.1069 92.224 30.056 96.424 27.3269 101.777C26.996 96.6407 26.8149 91.4974 26.792 86.3563C34.1235 83.1584 40.3497 77.4825 44.3423 70.3938C44.9918 69.2428 45.583 68.0512 46.1097 66.8325C46.476 65.9614 46.8341 65.0293 46.832 64.0408C46.8549 62.7951 46.2616 61.6802 45.3228 61.195C44.1717 60.5992 42.881 61.0866 41.886 61.5764C35.5099 64.7224 30.1288 70.2087 26.9502 76.6497C27.15 70.545 27.5726 64.4516 28.2116 58.3852C36.532 52.619 43.8178 45.51 49.867 37.2433C50.3354 36.6024 50.8059 35.9343 51.2055 35.2257C51.6718 34.3997 52.0403 33.515 52.2006 32.5491C52.5024 30.703 51.83 28.3988 49.9607 27.566C48.3079 26.8281 46.3844 27.4329 44.0842 29.4144C38.0121 34.6502 33.0203 41.1815 29.4377 48.4733C30.3453 42.2873 31.5131 36.1487 32.8933 30.0643C34.8126 28.3288 36.4675 25.9885 37.9309 23.3909C39.6066 20.4164 41.0304 17.1057 42.3148 13.9957C43.2536 11.7118 44.105 9.2474 43.9697 6.6859C43.8386 4.23725 42.5376 1.32143 39.9251 0.326174Z" fill="#CD8B66"/>
</svg>
