<svg width="23" height="27" viewBox="0 0 23 27" fill="none" xmlns="http://www.w3.org/2000/svg">
<path d="M16.4269 6.5605C15.9314 6.40703 15.4402 6.30548 14.9572 6.26485C13.9643 4.83628 12.6445 3.62888 10.973 2.84351C13.4689 3.07822 15.334 4.5271 16.4269 6.5605ZM20.9066 16.978C20.7505 15.9286 20.4445 14.8949 19.9678 13.9335C19.8595 13.1617 19.5785 12.4643 19.2288 11.8121C19.235 11.4036 19.2579 10.9906 19.2267 10.5867C20.5485 12.3447 21.1772 14.7099 20.9066 16.978ZM16.3873 23.1594C15.2653 23.7033 14.0413 24.0193 12.8319 24.0938C12.9963 23.9606 13.1733 23.8455 13.3252 23.7033C13.8602 23.191 14.2932 22.6291 14.6387 22.031C16.2541 21.3833 17.7133 20.3204 18.7084 18.8873C18.571 20.6047 17.8008 22.1822 16.3873 23.1594ZM13.4355 18.1335C12.9963 18.393 12.4717 18.5849 11.8285 18.6751C10.7481 18.8263 9.69691 18.5171 8.78098 17.9236C8.74351 17.8898 8.70396 17.8491 8.66441 17.813C8.55616 16.5289 8.65608 15.229 8.97665 14.087C9.75103 13.6402 10.5254 13.191 11.3019 12.7442C11.9451 13.3355 12.4946 14.0125 12.9713 14.7595C13.3814 15.9466 13.5646 17.1382 13.4355 18.1335ZM5.75426 4.14118C6.7368 3.83651 7.88379 3.81845 9.1869 4.20212C10.0508 4.45488 10.8314 4.95589 11.5725 5.54267C10.0654 5.30796 8.50828 5.39823 7.09484 5.86539C6.45578 6.07528 5.88957 6.398 5.38581 6.78843C4.8654 6.90353 4.3429 7.07505 3.81624 7.3391C3.50192 7.49708 3.24379 7.69342 2.97109 7.87848C3.49567 6.35287 4.40743 5.05294 5.75426 4.14118ZM6.53488 2.0491C3.07101 2.60654 1.0414 6.24228 0.779117 10.2639C-0.861223 13.4009 0.233725 17.6257 2.70881 20.37C2.86077 21.5232 3.29167 22.6697 4.04731 23.6537C5.71055 25.827 8.28763 26.1588 10.5774 25.3486C12.5134 26.7929 15.0009 27.0886 17.6925 25.2199C18.8374 24.421 19.6493 23.3693 20.2009 22.2003C21.2209 21.0538 22.0057 19.6591 22.3513 17.9913C23.1485 14.157 21.6102 9.79227 18.5814 7.62346C16.7329 2.50498 11.4913 -0.862198 6.53488 2.0491Z" fill="#683C1A"/>
</svg>
