<svg xmlns="http://www.w3.org/2000/svg" viewBox="0 0 47.97 40.5">
  <defs>
    <style>
      .cls-1 {
        fill: #683c1a;
      }
    </style>
  </defs>
  <g>
    <path class="cls-1" d="M47.27,0H40.73A.73.73,0,0,0,
    40,.58L38.63,7.22H.72A.73.73,0,0,0,0,8a1.1,1.1,0,0,0,0,
    .18l4.6,17.5,0,.06,0,.09.09.14.07.07a.48.48,0,0,0,.17.1s0,
    0,0,0l13.11,5.15-5.76,2.18A4.38,4.38,0,1,0,13,34.81l7.23-2.75,
    6.87,2.7a4.69,4.69,0,1,0,.55-1.36l-5.39-2.11,13.61-5.17,0,
    0A.76.76,0,0,0,36,26l.06-.07a1.13,1.13,0,0,0,.1-.13l0-.1,0-.09,
    5-24.13h6A.74.74,0,0,0,48,.7a.73.73,0,0,0-.7-.7ZM8.44,38.88a3.15,
    3.15,0,1,1,3.15-3.15A3.15,3.15,0,0,1,8.44,38.88Zm23.1-6.3a3.16,
    3.16,0,1,1-3.14,3.16h0a3.16,3.16,0,0,1,3.14-3.15ZM26,8.67,25.44,
    16H14.66L14,8.68Zm-.65,8.75-.53,7.3H15.47l-.67-7.3ZM1.67,
    8.67H12.52L13.2,16H3.59ZM4,17.42h9.36l.68,7.3H5.89ZM20.2,
    30.5l-11-4.33H31.6ZM35,24.72H26.25l.54-7.29h9.7ZM36.8,
    16H26.9l.53-7.3H38.32Z"/>
    <circle class="cls-1" cx="8.44" cy="35.73" r="0.73"/>
    <circle class="cls-1" cx="31.54" cy="35.73" r="0.73"/>
  </g>
</svg>