<svg width="101" height="117" viewBox="0 0 101 117" fill="none" xmlns="http://www.w3.org/2000/svg">
<g opacity="0.5">
<mask id="mask0_13_202" style="mask-type:luminance" maskUnits="userSpaceOnUse" x="0" y="0" width="101" height="117">
<path d="M0 0.847527H100.043V116.223H0V0.847527Z" fill="white"/>
</mask>
<g mask="url(#mask0_13_202)">
<path d="M95.7815 66.2639C95.0696 68.8051 94.2369 71.3079 93.3314 73.761C93.2793 73.7994 93.2356 73.8491 93.2002 73.9168C92.7693 74.7089 92.3613 75.5123 91.9637 76.3158C95.361 67.2817 96.533 57.3178 96.2728 47.6067C96.1978 44.7767 96.0417 41.2334 95.4713 37.776C95.5962 38.1574 95.7461 38.5117 95.8627 38.9044C98.5563 47.9971 97.6154 56.8755 95.6941 65.9976C95.6712 66.1082 95.7169 66.1962 95.7815 66.2639ZM78.1249 98.6674C70.2417 104.948 62.2607 109.834 52.2542 110.143C42.4642 110.448 32.9948 106.995 24.8326 101.254C16.8641 95.6477 11.9555 87.1056 7.00538 78.5613C6.97207 78.5049 6.89296 78.5545 6.92211 78.6155C11.4788 87.557 16.4748 96.1916 24.3976 102.059C32.8199 108.299 42.6203 111.881 52.8745 111.488C62.0608 111.139 69.638 107.101 76.9072 101.531C74.2218 104.395 71.1764 106.81 67.571 108.55C60.3247 112.05 52.1564 112.851 44.3335 111.926C36.5898 111.014 29.6745 108.281 23.3755 103.294C17.3283 98.5071 12.476 92.7342 8.00249 86.318C3.31877 75.58 1.44113 63.7904 2.27795 52.1136C2.60061 49.4077 3.01277 46.7175 3.48322 44.059C3.88082 41.8044 4.32629 39.5544 4.83213 37.3201C5.41915 35.1942 6.08945 33.0908 6.86382 31.0191C5.84798 36.4625 5.41083 42.0549 5.18393 47.3088C4.6094 60.5293 6.4579 74.5848 13.3398 85.8102C19.6285 96.0675 30.5134 104.643 42.3226 103.96C42.7848 103.933 42.7723 103.242 42.3226 103.192C20.1094 100.719 8.00665 78.8953 6.90338 56.3248C6.34133 44.8579 7.30097 32.1068 11.3727 21.4118C13.4169 16.0473 16.5914 11.0778 21.0836 7.7986C25.811 4.34566 31.0234 3.83788 36.5669 4.43594C38.432 4.63454 40.2014 4.8873 41.8668 5.42667C46.794 9.20235 49.7146 14.3976 51.3549 20.7279C52.2771 24.2802 52.8745 27.9746 53.0327 31.6623C53.1514 34.4562 52.6997 37.1802 52.5373 39.9267C51.1488 44.5893 50.5597 49.5769 50.8179 54.4178C51.076 59.2474 53.4553 65.984 59.0674 65.1829C64.8461 64.3614 64.9148 55.8712 64.8732 51.1793C64.8398 47.2456 64.1342 38.8096 59.2589 38.7058C59.4338 37.0154 59.7169 35.3996 60.1416 33.7137C60.3976 33.2556 60.6578 32.802 60.9222 32.3461C60.9388 32.319 60.9305 32.2942 60.9347 32.2693C64.9044 27.3246 70.5519 24.4314 77.0695 26.7176C81.6721 28.3312 85.6334 32.3167 87.2759 37.275C89.0224 42.5537 87.9316 48.3312 86.4224 53.5083C81.5555 70.202 69.7047 86.5527 54.952 94.2237C54.6897 94.3591 54.9208 94.8037 55.181 94.6479C64.2299 89.306 71.9091 83.2848 78.152 74.2327C84.0118 65.7403 89.4554 54.3998 89.6052 43.5738C89.7364 34.1087 83.25 25.6095 74.4737 24.4156C68.362 23.5851 61.5841 27.099 58.3014 32.8245C54.6585 36.792 52.8558 43.5805 53.474 49.4054C53.5094 51.3056 53.7592 53.0524 54.1381 54.217C54.723 56.0089 56.1302 58.8638 58.2722 58.2454C58.3201 58.2318 58.3513 58.2002 58.3992 58.1844C58.8509 58.1258 59.3256 57.873 59.821 57.3359C61.6716 55.3205 62.0837 51.5697 61.8319 48.4598C61.8319 48.4192 61.8298 48.3808 61.8298 48.3379C61.8735 47.4984 61.8423 46.6566 61.6612 45.8554C61.6445 45.7697 61.632 45.6704 61.6133 45.6027C61.607 45.5711 61.5862 45.5598 61.5717 45.5372C61.5404 45.4289 61.5175 45.316 61.4801 45.2077C61.3926 44.9549 61.0866 44.9504 61.0013 45.2077C60.4059 47.0132 60.4496 49.0263 60.1312 50.9039C60.1207 50.9694 60.1083 51.0484 60.0978 51.1161C59.9958 51.1725 59.9063 51.265 59.8522 51.414C59.6628 51.9443 59.5941 52.8516 59.4734 53.655C59.4588 53.6821 59.4505 53.7137 59.4359 53.7385C58.6886 55.0159 57.8372 55.0068 57.0357 54.5826C56.965 54.49 56.8963 54.4223 56.8234 54.3162C54.9624 51.6397 55.2622 44.3727 57.7602 41.8292C58.9425 41.7277 60.127 41.6284 61.3094 41.5268C61.8631 41.8315 62.5729 43.7679 62.7624 44.4065C63.1683 45.7651 63.2099 47.2817 63.264 48.7013C63.3744 51.5336 63.4035 54.4742 62.9851 57.2817C62.4293 61.001 59.8127 65.2867 55.8492 62.653C52.631 60.5135 52.3437 55.6929 52.3812 52.0414C52.4415 46.3158 53.5635 40.5361 55.9574 35.4063C60.5787 25.5056 71.0098 18.2883 81.4306 21.1793C81.7553 21.2696 82.0572 21.4027 82.3736 21.5088C84.1409 22.4183 85.7563 23.4971 87.2093 24.7473C86.514 24.5284 85.7646 24.3863 84.9486 24.3434C84.6842 24.3298 84.6238 24.7902 84.8861 24.8489C95.6483 27.3404 95.0071 43.4542 94.7407 52.7162C94.4409 63.2194 92.2781 73.7452 87.2363 82.8154C77.0779 101.084 57.3813 110.29 38.0865 107.029C37.691 106.963 37.5119 107.604 37.9179 107.692C57.6394 112.003 77.9917 102.387 88.4458 83.8784C85.8666 89.4415 83.0647 94.7315 78.1249 98.6674ZM33.6193 112.089C30.1429 110.759 27.1037 108.674 24.2414 106.241C27.7719 108.771 31.5709 111.134 35.5531 112.691C34.9057 112.524 34.2625 112.335 33.6193 112.089ZM19.4682 104.203C18.6668 103.35 17.9049 102.45 17.1617 101.534C19.2767 103.592 21.4458 105.542 23.5711 107.397C22.1764 106.372 20.7984 105.323 19.4682 104.203ZM6.9908 25.2709C6.18729 27.4239 5.45662 29.6063 4.83213 31.8247C4.07649 34.0229 3.40204 36.2549 2.81709 38.532C2.84416 38.3786 2.86289 38.2251 2.88995 38.0739C3.74551 33.4113 5.16728 29.2136 6.9908 25.2709ZM49.8853 12.5605C50.6138 13.7769 51.2716 15.0475 51.8524 16.3339C53.805 20.6535 54.7147 25.3973 54.6835 30.1592C54.2671 26.0653 53.2617 21.994 52.2417 18.778C51.3841 16.0766 50.2163 13.3052 48.6509 10.8995C49.0797 11.4389 49.4918 11.9918 49.8853 12.5605ZM58.0807 28.2996C58.826 26.9748 59.6586 25.6997 60.6099 24.5397C62.115 22.7072 63.874 21.1229 65.8474 19.9155C71.193 16.6386 77.8273 16.2752 83.456 18.8999C86.6305 20.3804 89.3554 22.6959 91.5599 25.5169C89.2597 23.0592 86.5036 21.0958 83.2562 19.9065C73.8888 16.4761 64.1009 21.0913 58.0183 28.945C57.9954 28.8232 57.9662 28.69 57.9413 28.5636C57.9912 28.4779 58.0308 28.3853 58.0807 28.2996ZM99.5534 43.1608C99.6825 31.8676 92.2468 20.1096 82.5797 16.5167C76.8426 14.3863 70.2563 15.0565 64.9939 18.3335C62.2753 20.0261 59.2798 22.8155 57.45 26.0766C57.4084 25.8645 57.3771 25.6523 57.3293 25.4379C56.4466 20.4526 55.0353 14.9979 51.9961 11.2764C51.0135 9.80492 49.8749 8.50498 48.553 7.44879C47.7537 6.61151 46.8919 5.83968 45.951 5.16263C44.754 4.30503 43.3385 3.67087 41.821 3.19694C40.5178 2.48378 39.1627 1.91055 37.7659 1.4998C29.4601 -0.93306 19.0394 3.65056 13.9248 11.572C7.57366 18.4937 3.47698 28.4756 1.73672 37.7263C0.648014 43.5241 0.32744 49.4754 0.246256 55.3905C-0.261666 62.4882 -0.0389315 69.6265 1.4203 76.6159C3.41036 86.1375 7.6153 94.8849 14.16 101.651C15.8316 103.377 17.6114 104.973 19.4578 106.474C21.7101 108.694 24.1852 110.486 26.8268 111.877C29.4747 113.745 32.5097 115.72 35.5323 115.738C36.3899 115.928 37.2642 116.054 38.1427 116.122C40.1785 116.275 42.4642 116.262 44.7269 116.025C48.0888 116.054 51.4611 115.756 54.7418 115.172C67.3753 112.926 78.6745 105.943 85.7188 94.2011C93.4355 81.3417 100.047 64.8962 100.043 49.3196C100.043 47.2817 99.8698 45.2122 99.5534 43.1608Z" fill="#683C1A"/>
</g>
<mask id="mask1_13_202" style="mask-type:luminance" maskUnits="userSpaceOnUse" x="0" y="0" width="101" height="117">
<path d="M0 0.847527H100.043V116.223H0V0.847527Z" fill="white"/>
</mask>
<g mask="url(#mask1_13_202)">
<path d="M49.6203 20.2833C46.7705 13.9597 40.434 9.13234 33.7852 9.81164C26.872 10.518 21.4056 16.6069 18.1499 22.838C14.3259 30.1592 12.9853 38.4914 12.5565 46.7852C12.5523 46.8619 12.671 46.8822 12.6814 46.8055C14.3301 34.1267 17.9126 16.2504 30.9333 11.8924C37.5696 9.66946 44.4432 13.9868 47.6469 20.3126C51.2669 27.4555 49.9284 35.6816 48.2173 43.181C48.1735 43.3729 48.4233 43.497 48.517 43.3187C52.1245 36.4173 52.8781 27.5142 49.6203 20.2833Z" fill="#683C1A"/>
</g>
<mask id="mask2_13_202" style="mask-type:luminance" maskUnits="userSpaceOnUse" x="0" y="0" width="101" height="117">
<path d="M0 0.847527H100.043V116.223H0V0.847527Z" fill="white"/>
</mask>
<g mask="url(#mask2_13_202)">
<path d="M35.2856 81.4026C37.2445 82.7702 39.3282 83.9032 41.4119 84.7563C42.0406 85.0135 42.7317 85.246 43.4582 85.4536C42.4486 85.3836 41.4244 85.2166 40.3524 84.8646C38.5392 84.0431 36.8469 82.8267 35.2856 81.4026ZM23.7991 37.7489C24.2799 34.8308 25.1813 31.2357 27.7938 29.7371C30.808 28.0084 33.4184 29.3851 35.167 31.7976C34.174 31.0032 32.9334 30.6602 31.4304 31.1115C27.5252 32.2873 26.934 37.6563 26.6176 41.2943C25.6143 52.8651 28.7097 65.0971 35.8414 73.9054C40.2524 79.3534 46.3163 83.2803 52.7194 83.5917C51.51 84.0318 50.2756 84.3748 48.8601 84.4177C46.1123 84.499 43.429 83.8084 40.8978 82.6913C37.2986 81.1025 33.5017 78.5929 30.3417 75.6725C29.5736 74.578 28.8637 73.4676 28.233 72.3911C27.9582 71.9194 27.698 71.4252 27.4357 70.94C25.7329 66.5933 24.6526 61.8924 23.9594 57.539C22.931 51.0935 22.7395 44.2102 23.7991 37.7489ZM21.4218 54.4042C20.7203 50.3848 20.2478 45.8892 20.4684 41.5561C20.4976 41.1003 20.5184 40.6399 20.5642 40.1862C20.5725 40.0779 20.5809 39.9718 20.5913 39.8635C20.7724 38.1686 21.0742 36.5031 21.4864 34.8782C21.7258 34.0138 22.0047 33.172 22.3378 32.3641C24.1842 27.9001 28.9179 24.2282 33.3559 26.8935C36.0454 28.5072 36.826 31.4072 37.2299 34.4088C35.8269 29.8883 31.9258 26.0608 27.2754 28.778C21.6675 32.0526 21.782 42.346 21.8382 48.1596C21.8819 52.5243 22.3544 56.9003 23.235 61.1747C22.5085 58.972 21.8902 56.7084 21.4218 54.4042ZM76.9353 54.6299C73.3194 62.2535 71.8456 70.4773 65.6069 76.4218C58.6292 83.0704 49.6573 83.436 42.026 77.7511C35.4417 72.8425 31.1473 64.9639 29.0573 56.7175C27.9395 52.3121 27.4565 47.7421 27.6564 43.1788C27.7667 40.6715 27.8916 37.794 28.897 35.4853C29.2364 34.244 29.9483 33.2781 31.0328 32.583C32.4358 32.8222 33.841 33.0569 35.244 33.2962C36.2182 33.9506 36.9197 35.8734 37.3465 37.223C37.1529 42.0978 37.7149 47.1079 38.0313 51.9623C38.3019 56.1488 38.4477 60.4006 39.3282 64.5035C40.6209 70.5112 44.3283 77.4125 50.6211 77.8684C51.0708 77.9 51.0958 77.2185 50.7211 77.0673C36.3972 71.3801 40.2171 51.1815 38.2437 37.8301C38.2665 37.7895 38.2957 37.7602 38.304 37.6992C39.1887 30.8994 35.0587 22.5875 27.7959 25.1084C19.3194 28.049 18.9592 40.1546 19.3839 48.0445C19.9397 58.3492 22.9185 69.1955 28.7076 77.5118C29.2197 78.2498 29.8275 79.0126 30.502 79.7732C32.9001 83.2352 36.0288 86.063 39.9714 86.7332C41.6451 87.3967 43.3541 87.7511 45.0173 87.6946C50.3318 87.97 56.2478 85.5416 60.688 82.0029C60.8087 81.9442 60.9295 81.9059 61.0502 81.8449C70.1262 77.329 76.521 65.3408 77.3683 54.7563C77.3891 54.508 77.0373 54.4133 76.9353 54.6299Z" fill="#683C1A"/>
</g>
<mask id="mask3_13_202" style="mask-type:luminance" maskUnits="userSpaceOnUse" x="0" y="0" width="101" height="117">
<path d="M0 0.847527H100.043V116.223H0V0.847527Z" fill="white"/>
</mask>
<g mask="url(#mask3_13_202)">
<path d="M70.692 89.0393C66.8659 90.7365 63.4603 93.4131 59.6051 95.1057C55.5209 96.8931 51.1411 98.0034 46.7218 97.9831C38.5534 97.9448 30.7451 93.966 24.7229 88.1321C11.3483 75.1712 8.55059 54.9252 9.86619 36.4395C9.87868 36.2748 9.65178 36.2816 9.63304 36.4395C7.42857 55.8076 10.6905 77.5205 25.2454 90.653C31.2655 96.0829 38.8199 99.6419 46.7218 99.7231C54.861 99.8089 65.3276 96.1483 70.9231 89.4704C71.0667 89.2989 70.9293 88.9355 70.692 89.0393Z" fill="#683C1A"/>
</g>
<mask id="mask4_13_202" style="mask-type:luminance" maskUnits="userSpaceOnUse" x="0" y="0" width="101" height="117">
<path d="M0 0.847527H100.043V116.223H0V0.847527Z" fill="white"/>
</mask>
<g mask="url(#mask4_13_202)">
<path d="M83.8293 43.6318C83.2214 38.7322 81.1107 33.3836 76.4373 31.6955C71.3102 29.8471 66.1873 33.1082 62.7463 37.0058C62.6194 37.1502 62.813 37.3601 62.9483 37.2247C67.0678 33.1714 74.3307 30.2601 78.9145 35.1529C82.6552 39.1452 82.9446 45.9857 82.3992 51.2779C81.1773 63.1443 74.5805 72.878 68.4376 82.3454C68.3023 82.553 68.6062 82.8058 68.7602 82.6162C77.4449 72.0994 85.6674 58.4411 83.8293 43.6318Z" fill="#683C1A"/>
</g>
<mask id="mask5_13_202" style="mask-type:luminance" maskUnits="userSpaceOnUse" x="0" y="0" width="101" height="117">
<path d="M0 0.847527H100.043V116.223H0V0.847527Z" fill="white"/>
</mask>
<g mask="url(#mask5_13_202)">
<path d="M63.9876 36.9098C63.3944 36.9098 63.3944 37.8983 63.9876 37.9073C72.6181 38.0269 71.7314 52.6015 70.5073 58.8507C69.2251 65.4022 65.6071 71.7146 59.306 73.5381C52.6926 75.4541 47.5322 70.4552 45.7087 63.9105C43.8206 57.1264 45.3777 49.8459 45.5796 42.9355C45.8044 35.3052 46.1458 20.259 37.4508 17.2235C28.4539 14.082 20.1293 26.5126 17.5294 34.161C17.4461 34.4047 17.8041 34.565 17.9145 34.337C20.5165 29.0019 23.5516 23.7661 28.2353 20.2883C34.2221 15.8401 40.2298 18.2978 42.5279 25.4767C45.7919 35.6731 42.9234 46.2914 43.219 56.6864C42.557 51.1707 42.811 45.4 42.7985 39.4442C42.7839 32.6309 42.2594 21.3242 34.6447 19.2208C34.5156 19.1847 34.422 19.3969 34.551 19.4623C44.2661 24.3393 41.4996 40.5027 41.4954 49.785C41.4912 57.7719 42.4259 67.632 48.6792 72.9174C48.8769 73.0844 49.083 73.0009 49.1809 72.8362C51.1126 74.5717 53.5003 75.6572 56.3251 75.6414C64.506 75.5963 70.0785 67.8441 71.5669 59.794C72.8492 52.861 73.8401 36.9211 63.9876 36.9098Z" fill="#683C1A"/>
</g>
<mask id="mask6_13_202" style="mask-type:luminance" maskUnits="userSpaceOnUse" x="0" y="0" width="101" height="117">
<path d="M0 0.847527H100.043V116.223H0V0.847527Z" fill="white"/>
</mask>
<g mask="url(#mask6_13_202)">
<path d="M56.6652 30.3881C56.6833 30.3881 56.6833 30.3513 56.6652 30.3513V30.3881Z" fill="#683C1A"/>
</g>
</g>
</svg>
