<svg width="209" height="125" viewBox="0 0 209 125" fill="none" xmlns="http://www.w3.org/2000/svg">
<g opacity="0.5">
<mask id="mask0_13_82" style="mask-type:luminance" maskUnits="userSpaceOnUse" x="0" y="0" width="207" height="107">
<path d="M0 0.922112H207V106.688H0V0.922112Z" fill="white"/>
</mask>
<g mask="url(#mask0_13_82)">
<path d="M189.773 103.719C185.406 101.81 182.639 98.3861 180.673 94.3441C181.419 94.5653 182.18 94.7707 182.967 94.9286C183.392 95.0189 183.566 94.4705 183.291 94.2155C179.702 90.8867 173.337 88.9729 168.487 90.4308C166.211 91.1146 164.359 92.5183 162.554 94.0236C164.905 90.1916 166.677 85.4342 167.425 83.5655C169.451 78.4944 171.314 73.3444 172.879 68.1176C173.106 67.3548 173.356 66.5581 173.521 65.7727C173.491 68.077 173.014 70.6971 173.037 71.9474C173.085 74.5292 173.588 76.926 174.983 79.1399C177.247 82.7373 182.098 86.2827 186.57 85.0144C186.877 84.9264 186.882 84.4434 186.588 84.3328C186.191 84.1839 185.799 84.0507 185.409 83.9244C189.621 81.9429 194.001 80.8844 198.565 82.9923C204.53 85.7501 206.708 92.9607 204.395 98.8713C202.034 104.904 195.337 106.15 189.773 103.719ZM156.54 97.6571C156.439 97.5804 156.345 97.5014 156.203 97.4518C155.067 97.0365 153.938 96.6009 152.802 96.1834C157.604 89.993 160.805 81.7691 163.416 74.5766C164.38 71.9226 167.622 65.2446 167.282 61.1011C168.847 61.7104 170.421 62.2024 171.981 62.4281C172.183 68.3861 168.884 75.0031 166.773 80.4534C165.711 83.1931 164.639 85.9487 163.352 88.596C162.476 90.3969 159.438 96.549 156.54 97.6571ZM151.116 95.556C149.523 94.967 147.943 94.3554 146.35 93.7596C152.3 82.735 159.954 71.1778 161.76 58.5735C162.994 59.1873 164.249 59.8057 165.523 60.3699C165.337 66.4678 161.877 73.4865 159.628 78.8578C157.205 84.6465 153.743 89.9095 151.116 95.556ZM144.301 92.9855C126.797 86.3956 109.456 79.3972 92.3276 71.8932C81.9728 67.3593 71.6914 62.6538 61.4903 57.7836C56.392 55.3485 51.319 52.8614 46.2483 50.3677C45.7458 50.1217 45.2365 49.8486 44.734 49.589C47.1386 43.7461 48.9512 37.7385 51.7274 32.0129C54.6987 25.8789 58.2941 20.1262 62.1924 14.527C62.3484 14.5992 62.5159 14.6647 62.6719 14.7369C67.8803 17.0705 73.1093 19.3611 78.3315 21.6676C89.0626 26.4024 99.8006 31.1327 110.536 35.8608L157.549 56.5559C158.467 56.9598 159.419 57.4202 160.385 57.8964C158.006 63.5024 156.51 69.4897 154.057 75.0979C151.389 81.2004 148.346 87.6143 144.301 92.9855ZM39.3374 46.768C41.0927 40.4963 43.4468 34.3893 46.3194 28.5329C47.6594 25.7976 49.1164 23.1188 50.672 20.4963C51.9202 18.3862 53.9622 14.202 56.2383 11.9858C57.7412 12.6426 59.2486 13.27 60.7377 13.9041C53.1821 24.0486 45.9684 36.5062 43.3642 48.8827C42.0311 48.1785 40.6912 47.4631 39.3374 46.768ZM33.092 44.0034C31.7497 38.6683 36.1046 30.8913 38.1742 26.2106C39.2801 23.71 40.4755 21.2456 41.7466 18.8218C42.4533 17.4722 43.1829 16.1361 43.9424 14.8182C44.2453 14.2901 44.5504 13.7642 44.8533 13.2361C45.7275 10.6746 47.5814 9.26411 50.3921 8.97975C50.5137 9.05649 50.6261 9.14224 50.7477 9.21672C50.7775 9.24155 50.8051 9.26186 50.8418 9.27089C50.8441 9.27089 50.8464 9.27315 50.8487 9.27315C50.8578 9.27991 50.8647 9.28443 50.8739 9.28894C52.1726 10.0743 53.5538 10.7514 54.958 11.3991C54.6138 11.794 54.2857 12.2815 53.8819 12.8231C51.4773 16.0549 49.316 19.5011 47.3382 23.0014C43.2174 30.309 40.1267 37.9732 37.6189 45.9262C36.1298 45.2063 34.6269 44.5292 33.092 44.0034ZM30.7516 26.2241C29.1088 25.0709 23.196 22.8163 21.9548 25.5471C21.9364 25.5877 21.9433 25.6261 21.941 25.6667C18.2836 26.2038 14.6056 26.0481 11.0332 24.6421C4.87721 22.2205 -1.27648 14.0712 3.06231 7.61212C6.47415 2.53427 14.0573 1.45325 19.4745 3.8184C24.9513 6.21515 28.0167 11.4352 28.2645 17.1878C28.3012 18.0251 29.1226 18.2643 29.749 18.0183C32.0618 20.0043 36.3409 21.2817 39.0897 20.1781C39.0139 20.3316 38.952 20.4625 38.9061 20.555C37.2128 23.9493 35.703 27.4293 34.3356 30.9657C33.6679 29.0361 31.9103 27.0366 30.7516 26.2241ZM206.171 98.9119C208.041 92.9449 206.875 85.9803 201.389 82.3107C196.064 78.7472 188.148 78.9436 183.348 83.2654C181.799 82.7621 180.313 82.1753 178.913 81.0356C175.985 78.6524 174.654 75.4477 174.524 71.7894C174.439 69.4559 175.602 63.5678 173.381 61.6473C173.349 61.5863 173.317 61.5276 173.259 61.4712C169.659 58.1605 163.919 56.6574 159.445 54.6872L111.562 33.6107C101.113 29.0091 90.6664 24.4119 80.2129 19.8238C74.9885 17.5309 69.7686 15.2176 64.5327 12.9495C60.3178 11.126 55.9722 8.75633 51.4842 7.48348C47.8475 3.70331 42.2491 13.8635 39.8996 18.5351C38.025 19.6861 35.7994 19.1874 33.8193 18.4471C32.5895 17.989 31.5386 17.2149 30.4098 16.6078C29.866 9.85089 25.6603 3.79132 18.9169 1.68796C13.0317 -0.144585 5.06765 1.23885 1.56404 6.69585C-2.18508 12.5388 1.35066 20.0991 6.43744 23.8951C12.1116 28.1289 19.5387 28.4133 26.0205 26.0143C27.6404 26.4589 29.2213 27.3142 30.2056 28.1718C31.4147 29.2347 32.3164 30.634 32.5161 32.2454C32.6514 33.3399 32.4426 33.5408 32.7593 34.4638C32.796 34.5699 32.8832 34.6263 32.975 34.6579C32.6537 35.5787 32.3233 36.495 32.0251 37.4225C31.4102 39.325 30.5474 41.6744 31.0706 43.5724C30.6071 43.8093 30.4603 44.5812 30.9077 44.9445C34.7853 48.1176 39.8468 50.0765 44.3164 52.3401C49.3573 54.8926 54.4372 57.3728 59.5308 59.817C70.005 64.8407 80.564 69.6951 91.2033 74.369C112.195 83.5926 133.517 92.076 155.087 99.9049C155.753 100.144 156.322 99.8778 156.666 99.4423C157.159 99.3655 157.641 99.1624 158.118 98.9006C160.757 98.0476 162.73 95.7411 164.97 94.1072C170.164 90.3202 174.37 92.2656 179.214 93.8815C181.802 105.547 201.69 113.22 206.171 98.9119Z" fill="#683C1A"/>
</g>
<mask id="mask1_13_82" style="mask-type:luminance" maskUnits="userSpaceOnUse" x="0" y="0" width="207" height="107">
<path d="M0 0.922112H207V106.688H0V0.922112Z" fill="white"/>
</mask>
<g mask="url(#mask1_13_82)">
<path d="M202.9 93.9048C202.806 93.6227 202.427 93.7197 202.365 93.9612C201.36 97.8068 199.871 101.298 195.151 101.485C191.331 101.639 188.617 99.0052 185.618 97.0982C185.57 97.0666 185.508 97.1162 185.542 97.1681C187.885 100.892 192.65 103.921 197.228 102.67C200.885 101.668 204.152 97.7323 202.9 93.9048Z" fill="#683C1A"/>
</g>
<mask id="mask2_13_82" style="mask-type:luminance" maskUnits="userSpaceOnUse" x="0" y="0" width="207" height="107">
<path d="M0 0.922112H207V106.688H0V0.922112Z" fill="white"/>
</mask>
<g mask="url(#mask2_13_82)">
<path d="M21.8427 7.22203C20.2526 5.61517 16.6893 2.72418 14.5142 4.88396C14.4316 4.9652 14.5417 5.09159 14.6427 5.05773C17.6369 4.02862 21.2323 7.82686 22.5906 9.93924C24.0637 12.2322 24.3665 14.6267 25.0067 17.1904C25.0686 17.4364 25.4036 17.3349 25.4541 17.143C26.3604 13.6653 24.261 9.66617 21.8427 7.22203Z" fill="#683C1A"/>
</g>
<mask id="mask3_13_82" style="mask-type:luminance" maskUnits="userSpaceOnUse" x="0" y="0" width="207" height="107">
<path d="M0 0.922112H207V106.688H0V0.922112Z" fill="white"/>
</mask>
<g mask="url(#mask3_13_82)">
<path d="M19.7164 11.7621C19.6636 11.717 19.5902 11.7869 19.6292 11.8411C20.5699 13.1501 20.8911 14.5358 21.3225 16.0433C21.3661 16.199 21.6024 16.1562 21.6254 16.0117C21.8732 14.3733 20.9324 12.8048 19.7164 11.7621Z" fill="#683C1A"/>
</g>
<mask id="mask4_13_82" style="mask-type:luminance" maskUnits="userSpaceOnUse" x="0" y="0" width="207" height="107">
<path d="M0 0.922112H207V106.688H0V0.922112Z" fill="white"/>
</mask>
<g mask="url(#mask4_13_82)">
<path d="M36.77 32.5805C36.7953 32.5015 36.676 32.4428 36.6461 32.5263C35.2397 36.2952 34.2232 40.1566 34.7762 44.1986C34.8037 44.3972 35.1295 44.4243 35.1479 44.2076C35.4645 40.2943 35.6228 36.3719 36.77 32.5805Z" fill="#683C1A"/>
</g>
<mask id="mask5_13_82" style="mask-type:luminance" maskUnits="userSpaceOnUse" x="0" y="0" width="207" height="107">
<path d="M0 0.922112H207V106.688H0V0.922112Z" fill="white"/>
</mask>
<g mask="url(#mask5_13_82)">
<path d="M52.1399 37.7641C52.1514 37.7099 52.0642 37.6963 52.0504 37.7505C50.9629 42.4424 50.621 47.4255 51.6374 52.1648C51.6604 52.2664 51.8118 52.2529 51.8026 52.1468C51.2818 47.2698 51.19 42.6072 52.1399 37.7641Z" fill="#683C1A"/>
</g>
<mask id="mask6_13_82" style="mask-type:luminance" maskUnits="userSpaceOnUse" x="0" y="0" width="207" height="107">
<path d="M0 0.922112H207V106.688H0V0.922112Z" fill="white"/>
</mask>
<g mask="url(#mask6_13_82)">
<path d="M54.8712 47.0384C54.6969 44.4566 54.9515 41.8905 55.0112 39.311C55.0135 39.2771 54.9538 39.2478 54.9401 39.2907C53.5749 43.7772 53.7768 49.6021 55.5688 53.9442C55.6261 54.0796 55.8487 54.0368 55.828 53.881C55.5435 51.5926 55.0273 49.3471 54.8712 47.0384Z" fill="#683C1A"/>
</g>
<mask id="mask7_13_82" style="mask-type:luminance" maskUnits="userSpaceOnUse" x="0" y="0" width="207" height="107">
<path d="M0 0.922112H207V106.688H0V0.922112Z" fill="white"/>
</mask>
<g mask="url(#mask7_13_82)">
<path d="M57.8244 43.3137C57.813 43.1286 57.5399 43.167 57.5399 43.343C57.5652 47.3489 58.1434 51.533 59.7931 55.2252C59.8481 55.3516 60.0202 55.2794 59.9881 55.1507C59.0152 51.2103 58.1021 47.3737 57.8244 43.3137Z" fill="#683C1A"/>
</g>
<mask id="mask8_13_82" style="mask-type:luminance" maskUnits="userSpaceOnUse" x="0" y="0" width="207" height="107">
<path d="M0 0.922112H207V106.688H0V0.922112Z" fill="white"/>
</mask>
<g mask="url(#mask8_13_82)">
<path d="M61.8096 50.214C61.5228 48.368 61.4815 46.4993 61.2956 44.6442C61.2864 44.5494 61.1488 44.5494 61.1327 44.6397C60.4627 48.2032 61.0616 52.5002 62.7319 55.732C62.7893 55.8403 62.9935 55.82 62.9637 55.6778C62.6058 53.8498 62.0964 52.0556 61.8096 50.214Z" fill="#683C1A"/>
</g>
<mask id="mask9_13_82" style="mask-type:luminance" maskUnits="userSpaceOnUse" x="0" y="0" width="207" height="107">
<path d="M0 0.922112H207V106.688H0V0.922112Z" fill="white"/>
</mask>
<g mask="url(#mask9_13_82)">
<path d="M64.7705 46.9371C64.743 46.7859 64.5296 46.8107 64.5319 46.9619C64.5824 50.5345 65.0665 54.2267 66.2825 57.6096C66.333 57.7518 66.5602 57.6999 66.5418 57.5487C66.0944 54.001 65.3785 50.4623 64.7705 46.9371Z" fill="#683C1A"/>
</g>
<mask id="mask10_13_82" style="mask-type:luminance" maskUnits="userSpaceOnUse" x="0" y="0" width="207" height="107">
<path d="M0 0.922112H207V106.688H0V0.922112Z" fill="white"/>
</mask>
<g mask="url(#mask10_13_82)">
<path d="M71.7861 60.5947C71.4855 58.8231 70.9692 57.1011 70.5103 55.3656C70.0056 53.4518 69.6729 51.4636 68.9019 49.6333C68.879 49.5814 68.8148 49.6039 68.8148 49.6513C68.801 53.1787 70.0354 57.469 71.5107 60.6579C71.575 60.7978 71.8159 60.7594 71.7861 60.5947Z" fill="#683C1A"/>
</g>
<mask id="mask11_13_82" style="mask-type:luminance" maskUnits="userSpaceOnUse" x="0" y="0" width="207" height="107">
<path d="M0 0.922112H207V106.688H0V0.922112Z" fill="white"/>
</mask>
<g mask="url(#mask11_13_82)">
<path d="M75.9929 63.1381C75.2449 59.4775 74.0242 55.7944 72.994 52.1947C72.9734 52.1203 72.861 52.1564 72.8656 52.2263C72.9963 55.8643 73.8613 60.053 75.6671 63.2622C75.7543 63.4134 76.0273 63.3073 75.9929 63.1381Z" fill="#683C1A"/>
</g>
<mask id="mask12_13_82" style="mask-type:luminance" maskUnits="userSpaceOnUse" x="0" y="0" width="207" height="107">
<path d="M0 0.922112H207V106.688H0V0.922112Z" fill="white"/>
</mask>
<g mask="url(#mask12_13_82)">
<path d="M80.0955 64.9936C79.772 63.1407 79.1273 61.3691 78.6317 59.5569C78.0879 57.5619 77.6519 55.5533 77.0324 53.5786C76.9934 53.4544 76.8099 53.5109 76.8145 53.6327C76.998 57.3858 77.9594 61.7844 79.7835 65.1109C79.8661 65.2599 80.1231 65.1516 80.0955 64.9936Z" fill="#683C1A"/>
</g>
<mask id="mask13_13_82" style="mask-type:luminance" maskUnits="userSpaceOnUse" x="0" y="0" width="207" height="107">
<path d="M0 0.922112H207V106.688H0V0.922112Z" fill="white"/>
</mask>
<g mask="url(#mask13_13_82)">
<path d="M84.7472 66.067C83.6206 62.5261 82.4642 58.8926 81.1334 55.4239C81.0806 55.2907 80.8764 55.3426 80.8879 55.4848C81.1701 59.1499 82.5629 63.0722 84.4695 66.2115C84.5659 66.3717 84.7976 66.225 84.7472 66.067Z" fill="#683C1A"/>
</g>
<mask id="mask14_13_82" style="mask-type:luminance" maskUnits="userSpaceOnUse" x="0" y="0" width="207" height="107">
<path d="M0 0.922112H207V106.688H0V0.922112Z" fill="white"/>
</mask>
<g mask="url(#mask14_13_82)">
<path d="M88.9337 67.5701C88.5689 65.9677 87.9218 64.4444 87.4721 62.8646C86.9857 61.1472 86.7425 59.3394 86.123 57.6604C86.1069 57.6152 86.0266 57.6197 86.022 57.6717C85.8798 59.3259 86.2698 60.9869 86.6851 62.5825C87.1417 64.3383 87.6442 66.137 88.6354 67.6829C88.7203 67.8138 88.9704 67.7303 88.9337 67.5701Z" fill="#683C1A"/>
</g>
<mask id="mask15_13_82" style="mask-type:luminance" maskUnits="userSpaceOnUse" x="0" y="0" width="207" height="107">
<path d="M0 0.922112H207V106.688H0V0.922112Z" fill="white"/>
</mask>
<g mask="url(#mask15_13_82)">
<path d="M90.7948 58.631C90.7718 58.5204 90.6112 58.5362 90.6158 58.6513C90.7466 61.9733 91.334 65.5888 92.9516 68.5565C93.0135 68.6648 93.2085 68.5881 93.1833 68.4685C92.495 65.1667 91.4395 61.9508 90.7948 58.631Z" fill="#683C1A"/>
</g>
<mask id="mask16_13_82" style="mask-type:luminance" maskUnits="userSpaceOnUse" x="0" y="0" width="207" height="107">
<path d="M0 0.922112H207V106.688H0V0.922112Z" fill="white"/>
</mask>
<g mask="url(#mask16_13_82)">
<path d="M98.5374 71.1097C98.3882 69.4374 97.8881 67.808 97.4177 66.1988C96.8991 64.4182 96.4196 62.5879 95.5523 60.9337C95.5087 60.8524 95.3642 60.8682 95.3779 60.9765C95.5936 62.6353 96.1305 64.2422 96.5779 65.8513C97.0781 67.6387 97.4682 69.478 98.2047 71.1887C98.2804 71.3647 98.5557 71.306 98.5374 71.1097Z" fill="#683C1A"/>
</g>
<mask id="mask17_13_82" style="mask-type:luminance" maskUnits="userSpaceOnUse" x="0" y="0" width="207" height="107">
<path d="M0 0.922112H207V106.688H0V0.922112Z" fill="white"/>
</mask>
<g mask="url(#mask17_13_82)">
<path d="M103.037 72.8199C102.734 71.2356 102.275 69.6987 101.85 68.1415C101.387 66.4376 101.077 64.684 100.497 63.0117C100.403 62.7387 100.008 62.8605 100.019 63.1246C100.155 66.3631 101.238 70.0282 102.748 72.8876C102.819 73.0253 103.071 73.0004 103.037 72.8199Z" fill="#683C1A"/>
</g>
<mask id="mask18_13_82" style="mask-type:luminance" maskUnits="userSpaceOnUse" x="0" y="0" width="207" height="107">
<path d="M0 0.922112H207V106.688H0V0.922112Z" fill="white"/>
</mask>
<g mask="url(#mask18_13_82)">
<path d="M106.183 70.477C105.6 68.6919 105.171 66.8368 104.455 65.0968C104.384 64.9275 104.118 64.9862 104.136 65.1712C104.492 68.5768 105.779 72.4675 107.44 75.4623C107.516 75.5955 107.761 75.503 107.727 75.354C107.327 73.6975 106.713 72.0974 106.183 70.477Z" fill="#683C1A"/>
</g>
<mask id="mask19_13_82" style="mask-type:luminance" maskUnits="userSpaceOnUse" x="0" y="0" width="207" height="107">
<path d="M0 0.922112H207V106.688H0V0.922112Z" fill="white"/>
</mask>
<g mask="url(#mask19_13_82)">
<path d="M110.457 71.7048C110.076 70.4974 109.702 69.272 109.05 68.1752C109.002 68.0917 108.855 68.1503 108.873 68.2406C109.107 69.4187 109.553 70.5403 109.906 71.6868C110.294 72.9461 110.567 74.2686 111.06 75.4918C111.122 75.6475 111.363 75.5888 111.349 75.4196C111.244 74.1648 110.837 72.9055 110.457 71.7048Z" fill="#683C1A"/>
</g>
<mask id="mask20_13_82" style="mask-type:luminance" maskUnits="userSpaceOnUse" x="0" y="0" width="207" height="107">
<path d="M0 0.922112H207V106.688H0V0.922112Z" fill="white"/>
</mask>
<g mask="url(#mask20_13_82)">
<path d="M116.87 78.8522C115.964 75.7671 114.902 72.9099 114.67 69.6646C114.649 69.4028 114.197 69.3825 114.193 69.6533C114.122 72.7858 114.67 76.4013 116.609 78.9921C116.714 79.132 116.916 79.0101 116.87 78.8522Z" fill="#683C1A"/>
</g>
<mask id="mask21_13_82" style="mask-type:luminance" maskUnits="userSpaceOnUse" x="0" y="0" width="207" height="107">
<path d="M0 0.922112H207V106.688H0V0.922112Z" fill="white"/>
</mask>
<g mask="url(#mask21_13_82)">
<path d="M121.975 81.036C121.367 79.2306 120.518 77.5109 119.896 75.7099C119.276 73.9112 118.857 72.0561 118.317 70.2349C118.26 70.0498 117.992 70.1356 117.998 70.3094C118.148 73.9632 119.465 78.2376 121.736 81.1624C121.832 81.282 122.023 81.1805 121.975 81.036Z" fill="#683C1A"/>
</g>
<mask id="mask22_13_82" style="mask-type:luminance" maskUnits="userSpaceOnUse" x="0" y="0" width="207" height="107">
<path d="M0 0.922112H207V106.688H0V0.922112Z" fill="white"/>
</mask>
<g mask="url(#mask22_13_82)">
<path d="M127.703 82.2944C127.315 80.762 126.583 79.2928 126.092 77.783C125.601 76.2709 125.264 74.716 124.713 73.2219C124.638 73.0121 124.355 73.1114 124.353 73.31C124.335 76.2506 125.498 80.1504 127.363 82.4749C127.508 82.6555 127.756 82.502 127.703 82.2944Z" fill="#683C1A"/>
</g>
<mask id="mask23_13_82" style="mask-type:luminance" maskUnits="userSpaceOnUse" x="0" y="0" width="207" height="107">
<path d="M0 0.922112H207V106.688H0V0.922112Z" fill="white"/>
</mask>
<g mask="url(#mask23_13_82)">
<path d="M133.18 85.9509C132.689 84.1996 131.783 82.5724 131.241 80.8256C130.702 79.0947 130.516 77.2621 129.943 75.5469C129.89 75.3935 129.642 75.4205 129.626 75.5785C129.417 77.3411 129.899 79.1691 130.399 80.8505C130.936 82.6672 131.593 84.6645 132.866 86.1156C133.001 86.2714 133.235 86.1472 133.18 85.9509Z" fill="#683C1A"/>
</g>
<mask id="mask24_13_82" style="mask-type:luminance" maskUnits="userSpaceOnUse" x="0" y="0" width="207" height="107">
<path d="M0 0.922112H207V106.688H0V0.922112Z" fill="white"/>
</mask>
<g mask="url(#mask24_13_82)">
<path d="M136.907 87.9585C135.888 84.6026 134.867 81.4499 134.685 77.9179C134.674 77.6697 134.247 77.6539 134.238 77.9066C134.146 81.3483 134.736 85.1465 136.695 88.0691C136.776 88.1865 136.943 88.0827 136.907 87.9585Z" fill="#683C1A"/>
</g>
<mask id="mask25_13_82" style="mask-type:luminance" maskUnits="userSpaceOnUse" x="0" y="0" width="207" height="107">
<path d="M0 0.922112H207V106.688H0V0.922112Z" fill="white"/>
</mask>
<g mask="url(#mask25_13_82)">
<path d="M140.02 84.7542C139.607 83.3866 139.396 81.9264 138.852 80.5994C138.827 80.543 138.726 80.543 138.721 80.6129C138.545 83.206 139.609 86.4084 140.931 88.6201C140.984 88.7059 141.147 88.6495 141.121 88.5479C140.816 87.2638 140.401 86.018 140.02 84.7542Z" fill="#683C1A"/>
</g>
<mask id="mask26_13_82" style="mask-type:luminance" maskUnits="userSpaceOnUse" x="2" y="18" width="207" height="107">
<path d="M2 18.959H209V124.725H2V18.959Z" fill="white"/>
</mask>
<g mask="url(#mask26_13_82)">
<path d="M145.786 100.722C145.724 100.523 145.386 100.6 145.423 100.807C145.797 102.836 146.043 105.023 146.953 106.905C147.034 107.072 147.277 107.018 147.27 106.831C147.203 104.745 146.4 102.692 145.786 100.722Z" fill="#683C1A"/>
</g>
</g>
</svg>
