<svg width="56" height="62" viewBox="0 0 56 62" fill="none" xmlns="http://www.w3.org/2000/svg">
<path d="M16.0314 36.5665C17.2887 36.5665 18.3067 37.67 18.3067 39.0332C18.3067 40.394 17.2887 41.4999 16.0314 41.4999C14.7741 41.4999 13.7562 40.394 13.7562 39.0332C13.7562 37.67 14.7741 36.5665 16.0314 36.5665Z" fill="#683C1A"/>
<path d="M32.9296 40.324C35.3818 40.324 37.3718 42.4815 37.3718 45.1401C37.3718 47.7986 35.3818 49.9539 32.9296 49.9539C30.4774 49.9539 28.4894 47.7986 28.4894 45.1401C28.4894 42.4815 30.4774 40.324 32.9296 40.324Z" fill="#683C1A"/>
<path d="M24.6975 20.5944C25.9548 20.5944 26.9727 21.698 26.9727 23.0611C26.9727 24.422 25.9548 25.5278 24.6975 25.5278C23.4402 25.5278 22.4222 24.422 22.4222 23.0611C22.4222 21.698 23.4402 20.5944 24.6975 20.5944Z" fill="#683C1A"/>
<path d="M5.19931 21.5344C7.17272 21.5344 8.77351 23.2699 8.77351 25.4093C8.77351 27.5511 7.17272 29.2866 5.19931 29.2866C3.22383 29.2866 1.62512 27.5511 1.62512 25.4093C1.62512 23.2699 3.22383 21.5344 5.19931 21.5344Z" fill="#683C1A"/>
<path d="M32.9296 53.4781C28.6893 53.4781 25.2379 49.7363 25.2379 45.1392C25.2379 40.542 28.6893 36.8002 32.9296 36.8002C37.1699 36.8002 40.6213 40.542 40.6213 45.1392C40.6213 49.7363 37.1699 53.4781 32.9296 53.4781ZM19.172 23.0606C19.172 19.7589 21.6512 17.071 24.6967 17.071C27.7442 17.071 30.2214 19.7589 30.2214 23.0606C30.2214 26.3624 27.7442 29.0503 24.6967 29.0503C21.6512 29.0503 19.172 26.3624 19.172 23.0606ZM16.0308 45.0218C12.9853 45.0218 10.5082 42.3362 10.5082 39.0322C10.5082 35.7305 12.9853 33.0426 16.0308 33.0426C19.0783 33.0426 21.5555 35.7305 21.5555 39.0322C21.5555 42.3362 19.0783 45.0218 16.0308 45.0218ZM44.3038 35.744C44.3038 29.5896 50.2594 25.5838 55.3198 28.2288C55.0638 25.5973 54.4539 22.9207 53.4963 20.2374C53.0883 19.0932 51.7561 18.7433 50.9109 19.5445C50.3093 20.1155 49.2539 19.9553 48.9 19.2398C48.4795 18.389 47.5033 18.064 46.7164 18.5109C44.7846 19.6054 42.3574 18.5854 41.6621 16.2766C41.404 15.4145 40.5838 14.9067 39.7678 15.1008C37.5176 15.638 35.4214 13.7716 35.4214 11.3161C35.4214 10.3615 35.7461 9.44298 36.3352 8.72982C37.2449 7.63075 36.5725 5.87042 35.209 5.79595C34.3951 5.74855 33.8143 4.97898 34.1869 4.29742C34.7594 3.25251 34.2057 1.90518 33.1045 1.66822C31.4392 1.31164 29.6344 0.982143 27.7297 0.982143C16.0121 0.982143 6.18666 8.33939 2.08998 18.8268C6.59467 16.3173 12.0236 19.8695 12.0236 25.41C12.0236 29.4903 8.9615 32.8079 5.19996 32.8079C3.11831 32.8079 1.25315 31.7923 0 30.1967C0.0333064 42.4242 6.91108 53.679 16.9259 58.5763C30.415 65.1685 46.3105 58.4499 52.7303 44.0423C48.1985 44.5095 44.3038 40.6436 44.3038 35.744Z" fill="#683C1A"/>
<path d="M51.9948 30.9297C49.5447 30.9297 47.5526 33.0894 47.5526 35.7435C47.5526 39.4604 51.2912 41.7692 54.2305 39.9005C54.8945 37.576 55.2942 35.1544 55.417 32.6787C54.601 31.6112 53.3708 30.9297 51.9948 30.9297Z" fill="#683C1A"/>
</svg>
