<svg width="163" height="135" viewBox="0 0 163 135" fill="none" xmlns="http://www.w3.org/2000/svg">
<g opacity="0.5">
<mask id="mask0_13_266" style="mask-type:luminance" maskUnits="userSpaceOnUse" x="0" y="0" width="163" height="135">
<path d="M0 0.244944H162.219V135H0V0.244944Z" fill="white"/>
</mask>
<g mask="url(#mask0_13_266)">
<path d="M66.6567 52.2443C68.7863 53.1208 75.0936 55.2488 75.6682 57.6843C75.7327 57.959 75.7473 58.1727 75.741 58.3624C75.7077 58.2751 75.6765 58.1857 75.6099 58.0964C73.497 55.3317 70.4786 54.115 67.4748 52.6651C67.2084 52.5364 66.9315 52.3882 66.6567 52.2443ZM134.494 125.208C125.203 121.863 115.857 118.673 106.489 115.566C87.7459 109.354 68.8508 103.679 50.0681 97.6066C49.9806 97.5783 49.9057 97.5827 49.8266 97.5827C49.3561 95.7512 48.13 94.371 47.2349 92.618C45.6966 89.6004 44.585 86.3233 43.9501 82.9677C43.3402 79.7364 43.2548 76.7014 43.5546 73.7361C44.4934 69.4342 46.0213 65.4856 47.9135 61.7376C48.3132 61.598 48.6047 61.1445 48.4423 60.7215C48.511 60.5907 48.5755 60.4599 48.6463 60.329C50.3116 57.9437 52.3641 55.6783 53.7838 53.365C53.8546 53.2516 53.9274 53.1382 53.9961 53.0248C54.3188 53.3628 54.6602 53.6768 55.0245 53.9668C54.9703 54.054 54.9641 54.1739 55.0474 54.2546C56.5128 55.6369 58.2698 56.6203 59.8997 57.7846C61.7815 59.7164 63.3864 61.9033 65.0081 64.0705C64.9623 64.0444 64.9206 64.0095 64.8748 63.9811C64.8519 63.8939 64.8186 63.8111 64.752 63.7326C63.197 61.8422 61.0883 60.462 59.2481 58.8856C57.4204 57.318 55.6968 55.5737 53.611 54.3897C53.3154 54.2219 53.0635 54.6318 53.2218 54.889C53.7047 55.6696 54.2834 56.3695 54.8933 57.0411C54.8725 57.1217 54.8746 57.2046 54.9266 57.2831C56.6815 59.8624 59.3272 61.9229 62.0833 63.6345C62.6704 64.0727 63.2761 64.4783 63.9193 64.8031C64.0026 64.8446 64.0859 64.8598 64.1691 64.8598C64.9227 65.2806 65.67 65.6862 66.3944 66.0634C66.7712 66.2596 67.2729 65.9064 67.1293 65.4485C67.0273 65.1171 66.8732 64.7988 66.7442 64.4739C66.8337 64.2624 66.8357 64.0095 66.6609 63.7587C66.409 63.3968 66.1238 62.9869 65.8261 62.5552C65.1746 61.4018 64.3856 60.316 63.4801 59.313C60.9322 55.9989 57.6786 52.5997 54.402 52.3816C55.0994 51.2587 55.8051 50.138 56.5128 49.0173C56.6398 49.2267 56.9063 49.3466 57.1353 49.1743C57.1706 49.1482 57.1977 49.1089 57.2331 49.0806C58.913 51.2849 61.8731 52.1134 64.2711 53.2799C67.4415 54.8215 71.3946 56.0948 73.7739 58.9074C72.4978 58.443 70.9657 57.488 70.36 57.2199C69.0735 56.6508 67.7912 56.0664 66.5152 55.4756C63.4947 54.0823 60.5325 52.41 57.3767 51.3918C56.7897 51.2021 56.5212 52.0764 56.9979 52.3925C61.6566 55.469 67.2875 57.2591 72.3958 59.3762C73.6386 59.8908 76.9234 62.0014 77.8019 59.8385C78.7698 57.4619 74.0403 54.5903 72.6019 53.6986C68.653 51.2544 64.1712 50.0705 60.1661 47.7636C64.3274 47.1989 68.5198 46.8348 72.6935 46.3922C73.9758 46.257 75.8097 46.3028 75.7681 44.552C75.7639 44.3012 75.6036 44.1202 75.3872 44.0439C75.179 43.972 74.975 43.924 74.7668 43.863C73.1182 41.7742 70.2497 42.4152 67.9161 42.86C65.2162 43.3789 62.1687 43.9306 59.5437 45.1363C59.3356 45.1363 59.1253 45.1341 58.9192 45.1472C59.3168 44.4909 59.7019 43.8324 60.0933 43.1762C60.5367 42.6223 60.9842 42.0751 61.4214 41.5125C61.515 41.3904 61.4984 41.2531 61.4484 41.1332C66.6567 38.5189 72.019 36.2819 77.5687 34.5659C80.3956 33.6938 83.2558 32.9437 86.141 32.318C87.6751 31.9844 90.2501 31.1537 91.7406 31.2714C94.2407 31.472 95.0463 33.3362 96.4014 35.1633C103.714 45.0142 110.942 54.937 118.086 64.9231C125.553 75.3626 132.932 85.8719 140.222 96.4511C143.168 100.727 146.034 105.094 148.924 109.448C146.309 111.705 144.057 114.408 142.083 117.289C140.362 119.803 137.978 123.099 137.437 126.305C136.454 125.945 135.48 125.561 134.494 125.208ZM21.0603 62.0821C18.0398 62.311 14.9985 62.4462 11.9676 62.3917C10.652 62.4004 9.34058 62.335 8.03122 62.1932C7.60448 61.3058 7.17566 60.4184 6.74892 59.531C7.04452 58.1683 10.6812 56.1297 11.8136 55.3949C12.6088 54.8803 12.2924 53.3759 11.3431 53.2952C9.31768 53.1251 6.00577 52.6411 4.57151 50.8227C1.52814 46.9613 5.97455 45.0556 8.34138 44.1726C11.9676 42.8186 15.6667 41.6608 19.3304 40.4224C20.2359 40.1171 20.2692 38.6628 19.3949 38.2921C17.6505 37.5465 14.0389 36.5239 12.921 34.8428C12.4193 34.0841 12.3569 33.6109 12.5546 33.3144C12.844 33.2904 13.1958 33.3079 13.6683 33.4081C14.3948 33.1814 15.2962 33.1596 16.2267 33.1945C17.0239 33.3471 17.7421 33.5019 18.1272 33.5281C19.0889 33.5869 19.9466 33.5172 20.7105 33.2773C21.6785 33.2315 22.7547 33.0855 23.3064 32.3092C24.6303 30.4472 22.7714 27.761 20.5378 25.4498C22.2322 25.6744 23.9288 25.5043 25.5275 24.5297C27.8839 23.0907 28.2794 21.3551 28.242 19.3361C28.3065 18.9 28.2336 18.549 28.1857 18.1391C28.1774 18.0344 28.1733 17.9276 28.1649 17.8208C29.5243 18.7976 31.0418 19.3601 32.8757 19.5084C33.4065 19.5498 33.9873 19.238 34.0539 18.6231C34.158 17.6529 34.2891 16.4537 34.4744 15.1476C35.2051 13.2071 35.3883 10.8872 35.865 8.77881C36.4478 6.98437 37.2222 5.3382 38.2609 4.11066C38.5586 3.80541 38.8709 3.5176 39.2018 3.28648C40.9296 2.07856 43.846 2.93545 45.2699 4.44426C46.8103 6.07517 47.4597 9.99981 48.1862 12.1278C50.8528 19.9204 52.7201 27.857 54.6872 35.8174C53.3737 37.1562 52.2351 38.7348 51.1859 40.4093C50.653 38.5821 49.9744 36.7964 49.25 35.0478C48.4194 33.0484 47.4015 29.3745 45.4863 28.16C44.6724 27.6433 43.667 27.4122 42.8447 28.075C41.3792 29.2546 42.3868 31.714 42.57 33.1203C42.5949 33.3231 42.8572 33.3231 42.8739 33.116C42.8989 32.959 42.8989 32.802 42.9155 32.6472C42.9592 32.5971 42.9884 32.5316 42.98 32.4532C44.8785 30.8593 46.0338 31.2474 46.446 33.6175C46.7686 34.3871 47.0434 35.1764 47.2703 35.9832C47.8761 37.9804 48.1842 40.0517 48.6109 42.0925C48.6463 42.2648 48.6796 42.4348 48.715 42.6093C46.0734 39.2406 41.1586 36.9621 37.3408 36.8575C34.0872 36.7681 28.5022 38.9332 30.0322 43.3571C30.2008 43.8412 30.7816 43.6885 30.9023 43.2699C32.3116 38.3096 37.1202 37.9215 41.1648 39.4238C42.0433 39.8751 42.8489 40.4463 43.6503 41.0612C45.3052 42.328 46.8061 43.7801 48.3507 45.1821C47.9094 45.9278 47.466 46.6604 47.0101 47.3559C46.5064 48.1212 45.9693 48.8691 45.4343 49.6191C44.0229 48.5987 42.2806 47.9119 40.8047 47.4126C38.5628 46.656 35.9649 45.9757 33.6667 46.7956C33.3024 46.9264 33.2525 47.5521 33.6397 47.696C35.6401 48.4374 37.7988 48.5486 39.8596 49.1024C40.6028 49.6562 41.5354 49.9767 42.3701 50.3146C42.9009 50.5283 43.4422 50.7071 43.9855 50.8685C44.127 50.9404 44.2686 51.0036 44.408 51.0712C42.4492 53.7574 40.4529 56.4262 38.7376 59.2541C32.8674 60.4468 27.0575 61.6307 21.0603 62.0821ZM157.748 134.372C157.346 133.683 156.936 133.061 156.503 132.475C156.503 132.178 156.363 131.873 156.007 131.679C155.92 131.629 155.83 131.583 155.743 131.533C155.402 131.147 155.048 130.77 154.654 130.419C156.357 130.447 158.029 130.58 159.742 130.885C160.194 130.966 160.55 130.406 160.187 130.042C159.213 129.163 158.466 128.125 157.931 126.939C159.088 127.057 160.244 127.168 161.407 127.253C161.49 127.362 161.57 127.473 161.653 127.582C161.901 127.901 162.363 127.473 162.175 127.14C162.13 127.057 162.08 126.976 162.032 126.893C162.152 126.564 162.05 126.124 161.655 126.058C161.617 126.054 161.578 126.049 161.538 126.043C154.688 114.033 146.29 102.789 138.488 91.4602C130.234 79.4726 121.862 67.5722 113.375 55.7612C109.426 50.2645 105.463 44.7809 101.504 39.2929C99.3511 36.3102 96.7553 30.2532 92.9438 29.3679C90.7601 28.8599 87.6564 29.9065 85.5956 30.3382C82.444 30.9988 79.3215 31.8274 76.2427 32.7955C69.9832 34.76 63.9631 37.3699 58.1365 40.4616C58.047 40.5074 57.9825 40.5663 57.918 40.6251C57.5557 40.4049 57.1644 40.2414 56.773 40.0713C55.6427 31.8448 53.2863 23.6772 50.7716 15.8214C49.5039 11.864 48.026 2.52118 43.2153 1.09741C43.2069 0.709302 42.9967 0.325558 42.5595 0.281951C35.7255 -0.400501 33.4107 8.50408 32.4552 14.9405C31.991 15.6251 31.4186 16.035 30.6359 15.8519C30.2632 15.7647 29.8074 15.1193 29.4701 14.8991C28.319 14.1381 27.6424 13.7806 26.3706 14.3932C26.1437 14.5023 25.9688 14.8576 25.9917 15.1127C25.9979 15.1738 26.0125 15.2305 26.0208 15.2915C26.0125 15.3526 25.9959 15.4049 25.9959 15.4682C25.9896 16.8243 26.2477 18.2219 26.1686 19.48C25.8855 19.9074 25.4192 20.3216 24.674 20.7272C23.3376 21.4511 21.2559 20.4612 19.9195 20.2933C17.9753 20.0491 16.5306 20.012 14.7799 21.0804C14.3574 21.3377 14.2345 22.031 14.5676 22.4235C14.4052 22.8072 14.4406 23.2717 14.8465 23.6052C16.3661 24.8633 19.168 26.7493 19.9695 28.5983C20.2796 28.9886 20.5898 29.381 20.9 29.7713C19.8758 30.299 18.8537 30.8266 17.8316 31.3542C16.9469 31.5091 15.6959 30.868 14.8195 30.7437C13.1292 30.4995 11.7532 30.6042 10.5021 31.3433C10.2565 31.3891 10.0025 31.557 9.86099 31.786C9.60703 31.9909 9.35307 32.2133 9.10535 32.4837C8.79519 32.8173 8.80767 33.4627 9.06996 33.8202C9.36556 34.2236 9.67364 34.6008 9.99422 34.9562C10.6479 37.0472 12.3735 38.3706 14.5093 39.1861C9.5196 39.6244 3.3371 41.8004 0.66426 45.9888C-1.90658 50.0159 3.58481 53.6724 6.8988 55.3753C6.72602 55.5061 6.54908 55.6478 6.39088 55.7503C4.9816 56.6987 3.38914 57.6254 2.43574 59.1255C1.84456 60.0565 1.49067 62.2172 2.02774 63.4993C2.01109 63.5276 1.99235 63.556 1.9757 63.5865C1.67386 64.1425 1.99443 64.8337 2.56064 64.9994C15.7167 68.8303 29.0996 65.66 41.9434 62.0254C42.0412 62.1758 42.1807 62.3066 42.3847 62.3786C42.4409 62.4004 42.4971 62.4178 42.5533 62.4353C43.0716 62.7907 43.6378 63.1504 44.2228 63.5407C41.0462 68.1151 41.1149 76.2827 41.7123 81.1798C42.3035 86.0137 44.3539 95.7119 49.0439 98.324C48.9731 98.7492 49.1355 99.2201 49.6413 99.3706C67.7558 104.756 85.785 110.525 103.75 116.438C121.693 122.347 139.379 129.08 157.319 134.982C157.65 135.091 157.916 134.664 157.748 134.372Z" fill="#683C1A"/>
</g>
<mask id="mask1_13_266" style="mask-type:luminance" maskUnits="userSpaceOnUse" x="0" y="0" width="163" height="135">
<path d="M0 0.244944H162.219V135H0V0.244944Z" fill="white"/>
</mask>
<g mask="url(#mask1_13_266)">
<path d="M56.1215 72.2561C56.95 73.2896 59.3148 76.1415 60.9051 75.1233C62.4809 74.1181 60.418 70.998 59.9372 69.8686C58.0325 65.3967 55.6677 61.0709 52.5889 57.3708C52.2746 56.9936 51.6938 57.5038 51.9436 57.9159C53.2509 60.0635 54.6394 62.1545 55.8738 64.3501C57.0562 66.4542 59.4251 69.8381 59.7248 72.2517L60.2328 73.536C59.3314 73.573 58.6174 73.2721 58.0887 72.6311C57.129 71.9116 56.4442 70.6666 55.8072 69.6244C54.171 66.9578 53.3425 63.986 52.2705 61.0578C52.1747 60.8005 51.7833 60.8267 51.7875 61.1319C51.8729 65.1241 53.6839 69.221 56.1215 72.2561Z" fill="#683C1A"/>
</g>
<mask id="mask2_13_266" style="mask-type:luminance" maskUnits="userSpaceOnUse" x="0" y="0" width="163" height="135">
<path d="M0 0.244944H162.219V135H0V0.244944Z" fill="white"/>
</mask>
<g mask="url(#mask2_13_266)">
<path d="M83.5701 43.7229C91.1369 42.9445 95.6021 48.2209 100.092 53.6871C104.507 59.0639 108.889 64.4712 113.284 69.8654C122.008 80.5753 130.295 92.1203 139.827 102.05C139.916 102.141 140.077 102.013 140.002 101.901C131.184 88.9915 120.397 77.2524 110.605 65.1405C105.844 59.2536 101.37 52.7277 96.06 47.375C92.6565 43.9474 88.2372 41.2612 83.4973 43.2039C83.2537 43.3042 83.2662 43.7534 83.5701 43.7229Z" fill="#683C1A"/>
</g>
<mask id="mask3_13_266" style="mask-type:luminance" maskUnits="userSpaceOnUse" x="0" y="0" width="163" height="135">
<path d="M0 0.244944H162.219V135H0V0.244944Z" fill="white"/>
</mask>
<g mask="url(#mask3_13_266)">
<path d="M92.7179 53.5089C97.1164 58.6786 102.666 62.8234 107.441 67.6093C107.504 67.6726 107.593 67.5723 107.533 67.509C102.92 62.5989 98.4383 57.0477 92.9115 53.232C92.745 53.1165 92.5993 53.3716 92.7179 53.5089Z" fill="#683C1A"/>
</g>
<mask id="mask4_13_266" style="mask-type:luminance" maskUnits="userSpaceOnUse" x="0" y="0" width="163" height="135">
<path d="M0 0.244944H162.219V135H0V0.244944Z" fill="white"/>
</mask>
<g mask="url(#mask4_13_266)">
<path d="M62.7131 97.2768C68.3939 99.4942 74.2287 101.361 79.9741 103.388C85.0741 105.191 90.4864 107.189 95.9362 106.984C96.2401 106.971 96.3255 106.463 96.0028 106.408C86.6937 104.869 78.1672 101.609 69.3306 98.2536C64.6386 96.4722 59.7717 94.8282 55.6521 91.8063C51.1932 88.5357 49.097 84.0333 47.9875 78.5911C47.9271 78.2989 47.5149 78.3316 47.4504 78.5998C45.1585 88.1585 55.6688 94.5295 62.7131 97.2768Z" fill="#683C1A"/>
</g>
<mask id="mask5_13_266" style="mask-type:luminance" maskUnits="userSpaceOnUse" x="0" y="0" width="163" height="135">
<path d="M0 0.244944H162.219V135H0V0.244944Z" fill="white"/>
</mask>
<g mask="url(#mask5_13_266)">
<path d="M136.106 123.618C137.545 120.703 138.804 117.786 140.613 115.078C142.212 112.686 144.194 110.664 145.888 108.364C146.046 108.146 145.788 107.856 145.572 108.013C140.977 111.358 137.187 117.89 135.815 123.526C135.771 123.71 136.029 123.771 136.106 123.618Z" fill="#683C1A"/>
</g>
<mask id="mask6_13_266" style="mask-type:luminance" maskUnits="userSpaceOnUse" x="0" y="0" width="163" height="135">
<path d="M0 0.244944H162.219V135H0V0.244944Z" fill="white"/>
</mask>
<g mask="url(#mask6_13_266)">
<path d="M135.793 118.484C136.997 116.103 138.056 113.642 139.569 111.444C139.644 111.337 139.497 111.208 139.415 111.313C137.733 113.446 136.241 115.696 135.541 118.406C135.5 118.567 135.727 118.617 135.793 118.484Z" fill="#683C1A"/>
</g>
<mask id="mask7_13_266" style="mask-type:luminance" maskUnits="userSpaceOnUse" x="0" y="0" width="163" height="135">
<path d="M0 0.244944H162.219V135H0V0.244944Z" fill="white"/>
</mask>
<g mask="url(#mask7_13_266)">
<path d="M48.3132 70.1852C48.5984 68.6437 49.0522 67.0847 49.1542 65.5148C49.1667 65.3164 48.9169 65.2183 48.8253 65.4124C48.1883 66.7794 47.9219 68.3493 47.6159 69.8232C47.3015 71.3277 47.0684 72.8169 47.1038 74.3584C47.1079 74.5001 47.3286 74.5437 47.3702 74.4063C47.799 73.0218 48.0509 71.6111 48.3132 70.1852Z" fill="#683C1A"/>
</g>
<mask id="mask8_13_266" style="mask-type:luminance" maskUnits="userSpaceOnUse" x="0" y="0" width="163" height="135">
<path d="M0 0.244944H162.219V135H0V0.244944Z" fill="white"/>
</mask>
<g mask="url(#mask8_13_266)">
<path d="M51.6197 95.0923C48.0039 90.1516 44.9376 85.8258 45.0354 79.2738C45.0354 79.2498 44.9959 79.2477 44.9959 79.2717C44.7835 85.0605 46.4114 92.0268 51.4282 95.282C51.5447 95.3583 51.7196 95.2275 51.6197 95.0923Z" fill="#683C1A"/>
</g>
<mask id="mask9_13_266" style="mask-type:luminance" maskUnits="userSpaceOnUse" x="0" y="0" width="163" height="135">
<path d="M0 0.244944H162.219V135H0V0.244944Z" fill="white"/>
</mask>
<g mask="url(#mask9_13_266)">
<path d="M109.209 57.2651C105.099 50.1636 98.2716 40.9451 90.709 37.6309C83.9811 34.6809 74.9925 37.3627 68.454 39.7502C68.4207 39.7633 68.4415 39.8135 68.4728 39.8026C75.8252 37.7269 85.0385 34.7092 92.0412 39.3033C98.8128 43.7468 103.561 51.4304 108.832 57.5485C109.03 57.7796 109.367 57.5376 109.209 57.2651Z" fill="#683C1A"/>
</g>
<mask id="mask10_13_266" style="mask-type:luminance" maskUnits="userSpaceOnUse" x="0" y="0" width="163" height="135">
<path d="M0 0.244944H162.219V135H0V0.244944Z" fill="white"/>
</mask>
<g mask="url(#mask10_13_266)">
<path d="M126.213 117.955C118.188 116.148 110.854 112.519 103.071 109.879C103.04 109.87 103.017 109.918 103.05 109.931C110.673 112.755 117.776 118.559 126.2 118.326C126.412 118.321 126.404 117.999 126.213 117.955Z" fill="#683C1A"/>
</g>
<mask id="mask11_13_266" style="mask-type:luminance" maskUnits="userSpaceOnUse" x="0" y="0" width="163" height="135">
<path d="M0 0.244944H162.219V135H0V0.244944Z" fill="white"/>
</mask>
<g mask="url(#mask11_13_266)">
<path d="M58.8485 81.9984C52.9054 78.8587 52.0831 73.8046 51.6668 67.4096C51.6605 67.3224 51.5377 67.3202 51.5231 67.4052C50.5989 72.9063 52.3121 81.5056 58.7715 82.2622C58.9234 82.2796 58.9838 82.0703 58.8485 81.9984Z" fill="#683C1A"/>
</g>
<mask id="mask12_13_266" style="mask-type:luminance" maskUnits="userSpaceOnUse" x="0" y="0" width="163" height="135">
<path d="M0 0.244944H162.219V135H0V0.244944Z" fill="white"/>
</mask>
<g mask="url(#mask12_13_266)">
<path d="M84.5714 63.7623C84.7817 62.3254 84.4819 60.7948 83.7325 59.5716C82.4898 57.5373 79.9897 57.001 78.6887 55.0517C78.6595 55.0081 78.5867 55.0474 78.6075 55.0975C79.5546 57.4087 81.8507 58.3179 82.8707 60.507C84.5256 64.0632 81.8778 67.5496 78.3993 67.9725C78.1849 67.9965 78.1662 68.3345 78.3848 68.3716C81.3594 68.8818 84.1051 66.9805 84.5714 63.7623Z" fill="#683C1A"/>
</g>
<mask id="mask13_13_266" style="mask-type:luminance" maskUnits="userSpaceOnUse" x="0" y="0" width="163" height="135">
<path d="M0 0.244944H162.219V135H0V0.244944Z" fill="white"/>
</mask>
<g mask="url(#mask13_13_266)">
<path d="M70.0944 76.3207C71.4766 74.0139 71.2684 71.4803 70.086 69.1604C70.0215 69.0361 69.8196 69.1495 69.8758 69.276C72.1219 74.3388 68.1085 78.754 63.3144 78.7649C63.0855 78.7649 63.1167 79.0941 63.3019 79.1508C65.8936 79.9118 68.6601 78.7148 70.0944 76.3207Z" fill="#683C1A"/>
</g>
<mask id="mask14_13_266" style="mask-type:luminance" maskUnits="userSpaceOnUse" x="0" y="0" width="163" height="135">
<path d="M0 0.244944H162.219V135H0V0.244944Z" fill="white"/>
</mask>
<g mask="url(#mask14_13_266)">
<path d="M43.6143 10.3095C43.8017 9.8538 43.7434 9.50277 43.5519 9.04707C43.3041 8.45837 42.307 8.60228 42.4361 9.31308C42.5235 9.80366 42.6276 10.1765 43.0419 10.4534C43.2375 10.5842 43.5123 10.5624 43.6143 10.3095Z" fill="#683C1A"/>
</g>
<mask id="mask15_13_266" style="mask-type:luminance" maskUnits="userSpaceOnUse" x="0" y="0" width="163" height="135">
<path d="M0 0.244944H162.219V135H0V0.244944Z" fill="white"/>
</mask>
<g mask="url(#mask15_13_266)">
<path d="M41.1819 15.8563C41.4254 15.1695 40.9883 14.6658 40.4616 14.2756C40.0266 13.955 39.4791 14.3671 39.629 14.9035C39.8163 15.5554 40.1265 16.1419 40.8301 16.1223C40.9737 16.118 41.134 15.998 41.1819 15.8563Z" fill="#683C1A"/>
</g>
<mask id="mask16_13_266" style="mask-type:luminance" maskUnits="userSpaceOnUse" x="0" y="0" width="163" height="135">
<path d="M0 0.244944H162.219V135H0V0.244944Z" fill="white"/>
</mask>
<g mask="url(#mask16_13_266)">
<path d="M46.069 16.9027C46.3438 16.1177 45.7172 15.5835 45.201 15.0908C44.82 14.7245 44.1601 15.2194 44.3704 15.7165C44.6514 16.3859 44.9324 17.1774 45.7318 17.1556C45.8692 17.1512 46.0232 17.0378 46.069 16.9027Z" fill="#683C1A"/>
</g>
<mask id="mask17_13_266" style="mask-type:luminance" maskUnits="userSpaceOnUse" x="0" y="0" width="163" height="135">
<path d="M0 0.244944H162.219V135H0V0.244944Z" fill="white"/>
</mask>
<g mask="url(#mask17_13_266)">
<path d="M99.1106 102.094C99.0489 102.002 98.911 102.105 98.9748 102.199C99.0386 102.291 99.1745 102.188 99.1106 102.094Z" fill="#683C1A"/>
</g>
<mask id="mask18_13_266" style="mask-type:luminance" maskUnits="userSpaceOnUse" x="0" y="0" width="163" height="135">
<path d="M0 0.244944H162.219V135H0V0.244944Z" fill="white"/>
</mask>
<g mask="url(#mask18_13_266)">
<path d="M114.394 108.981C114.294 108.41 113.961 108.077 113.447 107.869C112.987 107.684 112.762 108.419 113.252 108.556C113.57 108.657 113.824 108.848 114.009 109.132C114.134 109.28 114.436 109.219 114.394 108.981Z" fill="#683C1A"/>
</g>
<mask id="mask19_13_266" style="mask-type:luminance" maskUnits="userSpaceOnUse" x="0" y="0" width="163" height="135">
<path d="M0 0.244944H162.219V135H0V0.244944Z" fill="white"/>
</mask>
<g mask="url(#mask19_13_266)">
<path d="M129.496 112.125C128.61 111.968 127.715 111.973 126.853 111.659C126.305 111.456 125.924 112.313 126.482 112.533C127.467 112.923 128.56 113.152 129.542 112.633C129.757 112.522 129.765 112.171 129.496 112.125Z" fill="#683C1A"/>
</g>
<mask id="mask20_13_266" style="mask-type:luminance" maskUnits="userSpaceOnUse" x="0" y="0" width="163" height="135">
<path d="M0 0.244944H162.219V135H0V0.244944Z" fill="white"/>
</mask>
<g mask="url(#mask20_13_266)">
<path d="M83.6636 92.5553C83.3596 92.1127 82.9225 91.7529 82.5062 91.4259C82.042 91.0596 81.4716 91.8358 81.9483 92.1498C82.4042 92.4528 82.9225 92.7821 83.445 92.926C83.6386 92.9805 83.7697 92.7101 83.6636 92.5553Z" fill="#683C1A"/>
</g>
<mask id="mask21_13_266" style="mask-type:luminance" maskUnits="userSpaceOnUse" x="0" y="0" width="163" height="135">
<path d="M0 0.244944H162.219V135H0V0.244944Z" fill="white"/>
</mask>
<g mask="url(#mask21_13_266)">
<path d="M133.867 106.606C133.497 106.059 132.76 106.434 132.764 107.04C132.764 107.09 132.766 107.141 132.766 107.191C132.766 107.319 132.87 107.472 132.989 107.516C133.034 107.531 133.078 107.548 133.124 107.564C133.674 107.764 134.236 107.151 133.867 106.606Z" fill="#683C1A"/>
</g>
<mask id="mask22_13_266" style="mask-type:luminance" maskUnits="userSpaceOnUse" x="0" y="0" width="163" height="135">
<path d="M0 0.244944H162.219V135H0V0.244944Z" fill="white"/>
</mask>
<g mask="url(#mask22_13_266)">
<path d="M142.252 105.042C142.188 104.95 142.052 105.053 142.116 105.147C142.178 105.239 142.316 105.136 142.252 105.042Z" fill="#683C1A"/>
</g>
<mask id="mask23_13_266" style="mask-type:luminance" maskUnits="userSpaceOnUse" x="0" y="0" width="163" height="135">
<path d="M0 0.244944H162.219V135H0V0.244944Z" fill="white"/>
</mask>
<g mask="url(#mask23_13_266)">
<path d="M119.612 86.3731C118.717 86.4537 119.096 87.9582 119.874 87.5832C120.465 87.2975 120.317 86.3098 119.612 86.3731Z" fill="#683C1A"/>
</g>
<mask id="mask24_13_266" style="mask-type:luminance" maskUnits="userSpaceOnUse" x="0" y="0" width="163" height="135">
<path d="M0 0.244944H162.219V135H0V0.244944Z" fill="white"/>
</mask>
<g mask="url(#mask24_13_266)">
<path d="M69.8077 88.9313C69.7411 88.3753 69.5204 88.0744 69.2644 87.586C68.9771 87.0344 68.7773 86.3977 68.744 85.7698C68.7107 85.1636 67.8863 85.1811 67.7698 85.7349C67.4971 87.0409 67.8738 89.3368 69.5204 89.2954C69.689 89.291 69.8285 89.1014 69.8077 88.9313Z" fill="#683C1A"/>
</g>
<mask id="mask25_13_266" style="mask-type:luminance" maskUnits="userSpaceOnUse" x="0" y="0" width="163" height="135">
<path d="M0 0.244944H162.219V135H0V0.244944Z" fill="white"/>
</mask>
<g mask="url(#mask25_13_266)">
<path d="M63.1308 90.4814C62.8248 90.0845 62.4106 89.8382 62.1358 89.4021C61.938 89.0903 61.4447 89.3628 61.58 89.7117C61.8277 90.3593 62.2315 90.9218 62.9455 90.9087C63.1371 90.9065 63.2495 90.634 63.1308 90.4814Z" fill="#683C1A"/>
</g>
<mask id="mask26_13_266" style="mask-type:luminance" maskUnits="userSpaceOnUse" x="0" y="0" width="163" height="135">
<path d="M0 0.244944H162.219V135H0V0.244944Z" fill="white"/>
</mask>
<g mask="url(#mask26_13_266)">
<path d="M100.297 103.615C99.2432 103.072 98.0921 102.808 96.9638 102.483C96.3081 102.293 96.1 103.451 96.789 103.593C97.9276 103.828 99.0538 104.112 100.217 104.118C100.486 104.121 100.505 103.722 100.297 103.615Z" fill="#683C1A"/>
</g>
<mask id="mask27_13_266" style="mask-type:luminance" maskUnits="userSpaceOnUse" x="0" y="0" width="163" height="135">
<path d="M0 0.244944H162.219V135H0V0.244944Z" fill="white"/>
</mask>
<g mask="url(#mask27_13_266)">
<path d="M108.917 103.959C109.073 103.551 108.628 103.137 108.272 103.409C107.92 103.677 108.14 104.249 108.565 104.225C108.613 104.222 108.659 104.218 108.707 104.216C108.773 104.212 108.84 104.161 108.865 104.096C108.882 104.05 108.9 104.004 108.917 103.959Z" fill="#683C1A"/>
</g>
<mask id="mask28_13_266" style="mask-type:luminance" maskUnits="userSpaceOnUse" x="0" y="0" width="163" height="135">
<path d="M0 0.244944H162.219V135H0V0.244944Z" fill="white"/>
</mask>
<g mask="url(#mask28_13_266)">
<path d="M121.999 103.269C121.943 102.983 121.935 102.939 121.812 102.669C121.539 102.074 120.754 102.66 121.21 103.123C121.414 103.33 121.452 103.354 121.693 103.5C121.826 103.583 122.03 103.43 121.999 103.269Z" fill="#683C1A"/>
</g>
<mask id="mask29_13_266" style="mask-type:luminance" maskUnits="userSpaceOnUse" x="0" y="0" width="163" height="135">
<path d="M0 0.244944H162.219V135H0V0.244944Z" fill="white"/>
</mask>
<g mask="url(#mask29_13_266)">
<path d="M130.732 120.456C130.725 120.29 130.555 120.142 130.398 120.168C130.167 120.205 129.878 120.382 129.653 120.345C129.091 120.249 128.993 121.082 129.516 121.237C130.078 121.402 130.754 121.138 130.732 120.456Z" fill="#683C1A"/>
</g>
<mask id="mask30_13_266" style="mask-type:luminance" maskUnits="userSpaceOnUse" x="0" y="0" width="163" height="135">
<path d="M0 0.244944H162.219V135H0V0.244944Z" fill="white"/>
</mask>
<g mask="url(#mask30_13_266)">
<path d="M140.175 105.548C140.331 105.11 140.021 105.14 139.871 104.835C139.509 104.105 138.51 104.65 138.918 105.365C139.091 105.666 139.328 105.812 139.663 105.838C139.865 105.853 140.098 105.766 140.175 105.548Z" fill="#683C1A"/>
</g>
</g>
</svg>
