<svg width="553" height="382" viewBox="0 0 553 382" fill="none" xmlns="http://www.w3.org/2000/svg">
<path d="M75.4485 161.067C102.547 150.212 133.152 157.025 161.1 149.106C208.333 135.726 242.815 82.1305 291.63 81.4196C324.993 80.9299 353.736 105.895 377.361 131.438C400.987 156.98 424.418 185.626 456.347 196.125C473.527 201.774 491.883 201.636 509.364 206.068C526.844 210.503 544.777 221.352 550.35 239.853C555.689 257.587 547.742 277.558 534.971 290.054C522.196 302.552 505.436 308.993 488.937 314.29C390.895 345.773 286.809 347.203 184.729 340.81C160.761 339.307 136.243 337.237 114.342 326.576C87.0683 313.299 66.4329 286.912 43.6805 266.515C22.4622 247.492 23.018 221.489 36.8506 196.116C45.5498 180.156 59.3969 167.497 75.4485 161.067Z" fill="#FABC57"/>
<path d="M104.322 124.209C103.9 122.846 104.555 121.302 105.594 120.408C106.631 119.519 107.971 119.163 109.281 118.953C112.018 118.513 119.943 117.377 119.144 122.744C118.944 124.085 118.028 125.209 116.933 125.865C115.836 126.524 114.57 126.773 113.323 126.899C111.729 127.064 110.118 127.046 108.527 126.849C106.824 126.637 104.87 125.967 104.322 124.209ZM129.456 83.7868C130.582 81.7286 132.583 80.6115 134.425 79.4515C136.13 78.3795 137.541 77.0231 139.155 75.8338C142.824 73.1279 144.756 78.1019 142.849 81.4488C142.073 82.8096 140.932 83.8726 139.81 84.9152C138.873 85.7841 137.937 86.6507 137 87.5196C136.042 88.4088 135.064 89.3093 133.9 89.8284C132.735 90.3474 131.334 90.4264 130.268 89.6997C128.544 88.5216 128.417 85.6848 129.456 83.7868ZM149.409 126.046C149.159 125.039 149.482 123.947 150.039 123.098C150.599 122.25 151.374 121.6 152.136 120.966C154.344 119.12 156.557 117.28 158.764 115.432C160.046 114.362 161.636 112.126 163.175 111.548C164.967 110.873 166.732 112.593 167.174 114.428C167.686 116.549 166.616 118.801 165.498 120.467C163 124.186 159.29 126.933 155.185 128.102C154.095 128.411 152.939 128.612 151.84 128.339C150.741 128.066 149.702 127.228 149.409 126.046ZM152.785 69.0836C152.906 70.8823 151.992 72.7149 150.539 73.5905C149.375 74.2924 147.806 74.3353 146.784 73.4077C145.568 72.3041 145.518 70.1804 146.299 68.6819C148.047 65.3238 152.435 63.8726 152.785 69.0836ZM105.403 167.84C107.006 168.783 107.543 171.112 107.112 173.035C106.681 174.956 105.507 176.567 104.362 178.109C100.34 183.52 96.1622 189.007 91.3036 193.482C91.593 193.726 91.8678 193.983 92.1696 194.215C102.01 201.769 116.004 200.424 126.352 193.712C134.652 188.33 141.748 171.494 151.495 172.272C164.553 173.317 174.411 177.07 186.081 167.258C197.158 157.948 202.593 142.232 202.547 127.041C202.537 123.742 202.283 120.469 201.843 117.222C201.492 117.637 201.134 118.048 200.769 118.447C194.959 124.861 187.778 129.632 180.34 133.602C178.252 134.717 176.041 135.8 173.712 135.748C171.383 135.698 168.918 134.175 168.41 131.71C167.692 128.228 170.887 125.427 173.55 123.329C178.927 119.095 183.604 113.848 187.42 107.953C190.515 103.177 193.04 97.9665 194.945 92.5072C193.781 89.6749 192.528 86.8877 191.2 84.157C189.797 89.1671 187.105 93.762 183.429 97.1653C181.945 98.5374 179.599 99.6907 178.202 98.2102C176.845 96.7771 177.73 94.3239 178.6 92.4959C181.706 85.9579 183.633 78.7722 184.343 71.4555C177.675 60.2414 169.782 49.8848 160.874 40.677C159.238 44.7957 156.22 48.2057 153.285 51.442C149.034 56.1317 144.781 60.8191 140.53 65.5088C138.509 67.7386 135.21 70.0518 133.089 67.9372C130.934 65.7909 132.866 62.0085 134.666 59.5057C141.232 50.3768 145.451 39.341 146.99 27.8966C134.233 17.3933 120.247 8.66394 106.331 0C98.4041 7.7206 91.5513 16.714 85.9684 26.556C88.4601 29.5418 91.1933 32.2861 94.1472 34.728C96.4682 36.6418 99.216 39.0949 98.7414 42.2161C98.3479 44.8047 95.6668 46.4071 93.252 46.2175C90.8373 46.0279 88.6953 44.5068 86.8093 42.8616C84.6486 40.9749 82.6689 38.8512 80.887 36.547C76.6384 45.8812 73.466 55.7909 71.5696 65.9963C69.8335 75.3373 69.1341 84.7685 69.1465 94.2427C76.3449 97.5625 84.0636 99.5643 91.8802 99.9953C95.5773 100.194 99.3867 100.086 102.842 101.525C106.298 102.968 109.36 106.495 109.066 110.499C100.902 111.731 92.6796 112.968 84.4446 112.548C79.4611 112.295 74.4423 111.381 69.7481 109.587C69.9938 112.997 70.3081 116.407 70.6786 119.815C75.9244 120.009 81.2076 120.49 86.341 120.645C87.8668 120.69 89.4239 120.742 90.8561 121.32C92.2862 121.896 93.5934 123.098 93.9473 124.71C94.6197 127.784 91.7449 130.343 89.1137 131.704C84.4592 134.116 79.3779 135.549 74.2299 135.913C73.7532 135.947 73.2724 135.958 72.7915 135.969C73.8844 143.268 75.1209 150.544 76.3615 157.766C77.7438 165.82 79.4153 174.351 82.7127 181.625C88.4247 179.756 93.7017 176.296 97.8067 171.595C99.8779 169.223 102.757 166.281 105.403 167.84Z" fill="#CD8B66"/>
<path d="M104.322 124.209C103.9 122.846 104.555 121.302 105.594 120.408C106.631 119.519 107.971 119.163 109.281 118.953C112.018 118.513 119.943 117.377 119.144 122.744C118.944 124.085 118.028 125.209 116.933 125.865C115.836 126.524 114.57 126.773 113.323 126.899C111.729 127.064 110.118 127.046 108.527 126.849C106.824 126.637 104.87 125.967 104.322 124.209ZM129.456 83.7868C130.582 81.7286 132.583 80.6115 134.425 79.4515C136.13 78.3795 137.541 77.0231 139.155 75.8338C142.824 73.1279 144.756 78.1019 142.849 81.4488C142.073 82.8096 140.932 83.8726 139.81 84.9152C138.873 85.7841 137.937 86.6507 137 87.5196C136.042 88.4088 135.064 89.3093 133.9 89.8284C132.735 90.3474 131.334 90.4264 130.268 89.6997C128.544 88.5216 128.417 85.6848 129.456 83.7868ZM149.409 126.046C149.159 125.039 149.482 123.947 150.039 123.098C150.599 122.25 151.374 121.6 152.136 120.966C154.344 119.12 156.557 117.28 158.764 115.432C160.046 114.362 161.636 112.126 163.175 111.548C164.967 110.873 166.732 112.593 167.174 114.428C167.686 116.549 166.616 118.801 165.498 120.467C163 124.186 159.29 126.933 155.185 128.102C154.095 128.411 152.939 128.612 151.84 128.339C150.741 128.066 149.702 127.228 149.409 126.046ZM152.785 69.0836C152.906 70.8823 151.992 72.7149 150.539 73.5905C149.375 74.2924 147.806 74.3353 146.784 73.4077C145.568 72.3041 145.518 70.1804 146.299 68.6819C148.047 65.3238 152.435 63.8726 152.785 69.0836ZM105.403 167.84C107.006 168.783 107.543 171.112 107.112 173.035C106.681 174.956 105.507 176.567 104.362 178.109C100.34 183.52 96.1622 189.007 91.3036 193.482C91.593 193.726 91.8678 193.983 92.1696 194.215C102.01 201.769 116.004 200.424 126.352 193.712C134.652 188.33 141.748 171.494 151.495 172.272C164.553 173.317 174.411 177.07 186.081 167.258C197.158 157.948 202.593 142.232 202.547 127.041C202.537 123.742 202.283 120.469 201.843 117.222C201.492 117.637 201.134 118.048 200.769 118.447C194.959 124.861 187.778 129.632 180.34 133.602C178.252 134.717 176.041 135.8 173.712 135.748C171.383 135.698 168.918 134.175 168.41 131.71C167.692 128.228 170.887 125.427 173.55 123.329C178.927 119.095 183.604 113.848 187.42 107.953C190.515 103.177 193.04 97.9665 194.945 92.5072C193.781 89.6749 192.528 86.8877 191.2 84.157C189.797 89.1671 187.105 93.762 183.429 97.1653C181.945 98.5374 179.599 99.6907 178.202 98.2102C176.845 96.7771 177.73 94.3239 178.6 92.4959C181.706 85.9579 183.633 78.7722 184.343 71.4555C177.675 60.2414 169.782 49.8848 160.874 40.677C159.238 44.7957 156.22 48.2057 153.285 51.442C149.034 56.1317 144.781 60.8191 140.53 65.5088C138.509 67.7386 135.21 70.0518 133.089 67.9372C130.934 65.7909 132.866 62.0085 134.666 59.5057C141.232 50.3768 145.451 39.341 146.99 27.8966C134.233 17.3933 120.247 8.66394 106.331 0C98.4041 7.7206 91.5513 16.714 85.9684 26.556C88.4601 29.5418 91.1933 32.2861 94.1472 34.728C96.4682 36.6418 99.216 39.0949 98.7414 42.2161C98.3479 44.8047 95.6668 46.4071 93.252 46.2175C90.8373 46.0279 88.6953 44.5068 86.8093 42.8616C84.6486 40.9749 82.6689 38.8512 80.887 36.547C76.6384 45.8812 73.466 55.7909 71.5696 65.9963C69.8335 75.3373 69.1341 84.7685 69.1465 94.2427C76.3449 97.5625 84.0636 99.5643 91.8802 99.9953C95.5773 100.194 99.3867 100.086 102.842 101.525C106.298 102.968 109.36 106.495 109.066 110.499C100.902 111.731 92.6796 112.968 84.4446 112.548C79.4611 112.295 74.4423 111.381 69.7481 109.587C69.9938 112.997 70.3081 116.407 70.6786 119.815C75.9244 120.009 81.2076 120.49 86.341 120.645C87.8668 120.69 89.4239 120.742 90.8561 121.32C92.2862 121.896 93.5934 123.098 93.9473 124.71C94.6197 127.784 91.7449 130.343 89.1137 131.704C84.4592 134.116 79.3779 135.549 74.2299 135.913C73.7532 135.947 73.2724 135.958 72.7915 135.969C73.8844 143.268 75.1209 150.544 76.3615 157.766C77.7438 165.82 79.4153 174.351 82.7127 181.625C88.4247 179.756 93.7017 176.296 97.8067 171.595C99.8779 169.223 102.757 166.281 105.403 167.84Z" fill="#CD8B66"/>
<path d="M101.192 197.994C103.937 196.259 106.583 194.286 109.058 192.129C121.444 181.332 129.61 166.236 137.51 151.635C137.546 151.574 137.593 151.524 137.641 151.479C136.003 147.751 134.454 143.975 132.958 140.177C122.487 148.033 111.656 156.117 99.7283 161.551C97.6237 162.512 95.5192 163.37 93.425 164.122C88.3084 165.956 83.2375 167.148 78.2852 167.687C78.1811 167.229 78.077 166.773 77.9813 166.315C78.0063 166.308 78.0292 166.293 78.0562 166.29C84.9382 165.555 92.0595 163.523 99.2224 160.242C111.111 154.828 121.952 146.708 132.437 138.843C130.957 135.031 129.535 131.19 128.203 127.313C120.039 134.677 110.607 140.296 100.476 143.925C92.2781 146.864 83.6267 148.498 74.8297 148.712C74.7506 148.249 74.6715 147.789 74.5944 147.326C74.6298 147.317 74.6631 147.299 74.7006 147.299C94.1973 146.85 112.972 139.301 127.568 126.047C127.614 126.006 127.668 125.981 127.72 125.956C125.649 119.84 123.757 113.648 122.054 107.385C120.69 102.359 119.414 97.2135 118.209 91.9596C111.052 92.6863 102.826 93.2279 95.082 90.9395C88.5852 89.0122 82.1113 84.9928 75.8393 78.9942C74.0303 77.2677 72.2526 75.3968 70.4228 73.3069C70.4894 72.7811 70.5685 72.2553 70.6435 71.7317C70.7829 71.752 70.9183 71.8152 71.0223 71.9371C72.9499 74.16 74.8089 76.1212 76.7052 77.9334C82.8274 83.7854 89.1264 87.701 95.4276 89.5719C102.89 91.7768 110.892 91.2735 117.889 90.5649C116.742 85.487 115.672 80.2918 114.67 74.9815C109.375 74.4895 103.769 73.8328 98.5126 71.752C92.7756 69.4726 87.1634 65.3178 81.8282 59.4027C79.7091 57.0465 77.6191 54.4061 75.2835 51.1517C75.4354 50.6687 75.602 50.1903 75.7581 49.7073C75.8726 49.7502 75.9829 49.8179 76.062 49.9308C78.4726 53.3138 80.6021 56.0084 82.7628 58.4097C87.9607 64.1736 93.4105 68.2156 98.9622 70.4205C103.942 72.3929 109.304 73.0519 114.398 73.5327C113.956 71.1472 113.525 68.7392 113.113 66.3018L113.109 66.2995C113.005 66.1325 112.98 65.9339 113.018 65.7534C111.311 55.6496 109.853 45.1125 108.629 34.1104C100.829 32.4968 94.0329 27.0285 90.3671 19.3756C90.6107 19.01 90.8646 18.6557 91.1103 18.2924C91.2664 18.3465 91.4038 18.4661 91.485 18.6376C94.8947 25.8189 101.2 30.9847 108.467 32.6277C107.349 22.3704 106.431 11.7182 105.717 0.60112L106.331 0.000793457L107.014 0.425079L107.016 0.420578C107.89 14.0563 109.071 26.9992 110.553 39.3508C119.72 34.2346 126.786 25.9543 130.478 15.934C130.516 15.8347 130.574 15.7512 130.643 15.6835C130.995 15.925 131.351 16.1619 131.702 16.4057C131.698 16.4237 131.7 16.444 131.694 16.4598C127.826 26.9495 120.389 35.5932 110.734 40.847C111.739 49.0393 112.876 56.9788 114.158 64.6565C127.154 54.9229 136.582 39.8766 140.081 23.1716C140.123 22.9685 140.241 22.8128 140.395 22.718C140.716 22.9595 141.039 23.1964 141.357 23.4402C141.355 23.456 141.359 23.4718 141.357 23.4853C137.743 40.7387 127.935 56.2679 114.423 66.1889C116.538 78.606 119.021 90.3889 121.896 101.61C142.198 91.0501 159.055 71.9912 168.192 49.2108C168.229 49.1183 168.281 49.0416 168.348 48.9761C168.654 49.3417 168.96 49.7074 169.264 50.0752C159.946 73.1061 142.843 92.3591 122.26 102.995C122.608 104.329 122.951 105.665 123.309 106.983C124.608 111.761 126.049 116.487 127.564 121.179C149.809 109.452 168.568 88.554 179.079 63.7448C179.127 63.6319 179.204 63.5484 179.291 63.4785C179.564 63.8847 179.826 64.3022 180.099 64.7107C169.411 89.7005 150.458 110.736 127.997 122.531C130.322 129.617 132.868 136.609 135.674 143.472C151.228 147.024 167.557 146.06 182.901 140.68C189.558 138.326 196.011 135.153 202.029 131.231C202.15 131.154 202.281 131.136 202.41 131.145C202.376 131.659 202.354 132.174 202.31 132.688C196.465 136.455 190.243 139.547 183.792 141.858C183.629 141.914 183.467 141.973 183.302 142.029C168.052 147.376 151.844 148.41 136.349 145.06C138.066 149.193 139.875 153.275 141.763 157.317C159.934 161.716 179.574 159.594 197.112 151.319C197.291 151.233 197.485 151.249 197.649 151.334C197.412 151.876 197.16 152.411 196.904 152.941C194.55 154.029 192.162 155.02 189.743 155.886C174.418 161.377 157.969 162.461 142.51 158.933C156.253 187.924 174.33 214.433 196.075 237.188C196.336 237.459 196.342 237.911 196.09 238.193C196.015 238.279 195.923 238.337 195.826 238.373C195.603 238.452 195.347 238.398 195.168 238.209C171.676 213.629 152.434 184.695 138.299 152.982C130.793 166.852 122.264 182.436 109.878 193.237C107.541 195.272 105.049 197.139 102.468 198.811C101.937 198.707 101.412 198.572 100.888 198.432C100.929 198.254 101.033 198.096 101.192 197.994Z" fill="#F4D0B5"/>
<path d="M76.1328 223.059C108.534 213.448 145.389 220.897 174.368 202.479C190.02 192.534 201.544 175.962 217.666 166.941C238.046 155.54 263.544 158.144 283.729 169.945C303.915 181.744 319.213 201.73 330.082 223.621C340.95 245.515 347.784 269.444 354.551 293.199C359.154 309.363 363.617 327.575 356.333 342.533C350.199 355.131 337.278 361.874 324.805 366.352C289.019 379.205 250.667 380.2 212.976 381.08C173.381 382.005 133.551 382.913 94.4013 376.413C68.2038 372.062 15.0551 364.215 2.7234 333.829C-7.91383 307.618 14.951 270.141 30.9693 252.396C43.3843 238.641 58.9633 228.153 76.1328 223.059Z" fill="#FFFDF6"/>
<path d="M243.7 181.775C231.196 181.775 219.074 185.831 209.568 193.883C204.915 197.826 200.883 202.658 196.984 207.329C192.065 213.222 186.98 219.313 180.71 223.482C169.1 231.202 154.835 231.649 141.038 232.078C136.974 232.204 132.773 232.333 128.71 232.651C100.57 234.833 73.2965 247.025 51.9138 266.977C30.529 286.93 15.3476 314.353 9.16299 344.197L10.8158 344.596C16.9192 315.138 31.9071 288.067 53.0171 268.368C74.1271 248.672 101.051 236.639 128.831 234.481C132.859 234.17 137.041 234.037 141.088 233.913C155.103 233.475 169.6 233.026 181.594 225.048C188.072 220.742 193.241 214.547 198.239 208.562C202.09 203.947 206.072 199.176 210.61 195.332C228.338 180.313 255.483 179.656 276.622 193.73C295.338 206.188 308.946 228.939 313.958 256.147C317.992 278.043 316.806 302.967 310.33 332.346L311.978 332.773C318.511 303.129 319.701 277.948 315.619 255.788C310.513 228.081 296.624 204.89 277.508 192.164C267.086 185.224 255.229 181.775 243.7 181.775Z" fill="#F4D0B5"/>
<path d="M450.794 149.746C449.391 149.746 448.255 150.978 448.255 152.501V157.55C448.255 159.071 449.391 160.303 450.794 160.303C452.197 160.303 453.334 159.071 453.334 157.55V152.501C453.334 150.978 452.197 149.746 450.794 149.746Z" fill="#683C1A"/>
<path d="M467.728 155.253C466.325 155.253 465.188 156.488 465.188 158.009V165.811C465.188 167.332 466.325 168.564 467.728 168.564C469.131 168.564 470.269 167.332 470.269 165.811V158.009C470.269 156.488 469.131 155.253 467.728 155.253Z" fill="#683C1A"/>
<path d="M463.071 125.419C461.668 125.419 460.532 126.653 460.532 128.174V136.895C460.532 138.416 461.668 139.648 463.071 139.648C464.475 139.648 465.611 138.416 465.611 136.895V128.174C465.611 126.653 464.475 125.419 463.071 125.419Z" fill="#683C1A"/>
<path d="M444.443 128.632C443.04 128.632 441.904 129.867 441.904 131.388V135.06C441.904 136.579 443.04 137.811 444.443 137.811C445.846 137.811 446.983 136.579 446.983 135.06V131.388C446.983 129.867 445.846 128.632 444.443 128.632Z" fill="#683C1A"/>
<path d="M489.69 124.037C488.399 124.037 487.296 125.1 487.167 126.522L486.286 136.156C486.147 137.668 487.169 139.018 488.564 139.167C489.971 139.318 491.203 138.21 491.341 136.696L492.221 127.064C492.358 125.549 491.338 124.2 489.944 124.051C489.858 124.042 489.775 124.037 489.69 124.037Z" fill="#683C1A"/>
<path d="M482.546 93.2899C481.143 93.2899 480.007 94.5244 480.007 96.0455V105.682C480.007 107.205 481.143 108.438 482.546 108.438C483.949 108.438 485.086 107.205 485.086 105.682V96.0455C485.086 94.5244 483.949 93.2899 482.546 93.2899Z" fill="#683C1A"/>
<path d="M462.961 95.5997C462.867 95.5997 462.773 95.6043 462.678 95.6178C461.283 95.7826 460.278 97.1457 460.434 98.6555L461.318 107.371C461.474 108.883 462.736 109.964 464.122 109.806C465.517 109.642 466.522 108.279 466.371 106.767L465.482 98.0507C465.34 96.6424 464.239 95.5997 462.961 95.5997Z" fill="#683C1A"/>
<path d="M486.78 157.089C485.377 157.089 484.24 158.324 484.24 159.845V170.4C484.24 171.921 485.377 173.154 486.78 173.154C488.183 173.154 489.319 171.921 489.319 170.4V159.845C489.319 158.324 488.183 157.089 486.78 157.089Z" fill="#683C1A"/>
<path d="M442.64 100.162C441.375 100.162 440.28 101.184 440.124 102.579L439.241 110.379C439.072 111.888 440.063 113.263 441.454 113.448C442.828 113.635 444.114 112.559 444.285 111.047L445.163 103.249C445.334 101.739 444.345 100.367 442.953 100.182C442.848 100.169 442.744 100.162 442.64 100.162Z" fill="#683C1A"/>
<path d="M422.429 114.862C421.026 114.862 419.889 116.097 419.889 117.618V125.419C419.889 126.943 421.026 128.173 422.429 128.173C423.832 128.173 424.97 126.943 424.97 125.419V117.618C424.97 116.097 423.832 114.862 422.429 114.862Z" fill="#683C1A"/>
<path d="M463.65 68.4342C462.355 68.4342 461.25 69.5017 461.125 70.9257L460.309 80.1516C460.173 81.666 461.198 83.011 462.594 83.1555C463.975 83.3067 465.232 82.1918 465.365 80.6775L466.181 71.4516C466.314 69.9372 465.292 68.5922 463.895 68.4477C463.814 68.4387 463.731 68.4342 463.65 68.4342Z" fill="#683C1A"/>
<path d="M499.824 111.186C498.479 111.186 497.355 112.332 497.29 113.804L496.87 122.987C496.801 124.503 497.879 125.796 499.28 125.871C500.694 125.945 501.874 124.774 501.945 123.258L502.363 114.077C502.432 112.556 501.352 111.265 499.953 111.19C499.909 111.188 499.867 111.186 499.824 111.186Z" fill="#683C1A"/>
<path d="M488.473 78.1445C487.07 78.1445 485.933 79.3767 485.933 80.8978V86.4045C485.933 87.9278 487.07 89.16 488.473 89.16C489.876 89.16 491.013 87.9278 491.013 86.4045V80.8978C491.013 79.3767 489.876 78.1445 488.473 78.1445Z" fill="#683C1A"/>
<path d="M476.001 54.686C474.848 54.686 473.803 55.5458 473.531 56.8142L472.248 62.7812C471.93 64.2617 472.779 65.7422 474.147 66.0874C475.512 66.4327 476.878 65.512 477.196 64.0292L478.477 58.0667C478.795 56.5862 477.948 55.1057 476.58 54.7582C476.387 54.7108 476.193 54.686 476.001 54.686Z" fill="#683C1A"/>
<path d="M438.517 70.8011C437.114 70.8011 435.977 72.0333 435.977 73.5544V84.57C435.977 86.0911 437.114 87.3233 438.517 87.3233C439.92 87.3233 441.056 86.0911 441.056 84.57V73.5544C441.056 72.0333 439.92 70.8011 438.517 70.8011Z" fill="#683C1A"/>
<path d="M502.273 139.647C500.881 139.647 499.746 140.864 499.734 142.376L499.659 152.013C499.646 153.534 500.772 154.779 502.175 154.793C503.591 154.789 504.725 153.583 504.738 152.062L504.815 142.423C504.827 140.905 503.699 139.661 502.296 139.647H502.273Z" fill="#683C1A"/>
</svg>
