<svg width="482" height="563" viewBox="0 0 482 563" fill="none" xmlns="http://www.w3.org/2000/svg">
<path d="M16.7634 523.8C16.4783 523.76 16.2181 523.568 16.0994 523.275C5.33519 496.847 -5.62886 456.385 3.25978 413.708C11.3012 375.094 35.7044 342.221 66.9416 327.915C77.8994 322.896 89.7398 319.996 101.187 317.19C110.332 314.947 119.791 312.632 128.717 309.249C149.404 301.415 167.612 287.845 181.374 270.011C187.983 261.447 193.575 251.851 198.979 242.573C204.999 232.241 211.223 221.555 218.9 212.198C232.135 196.069 255.778 180.181 278.843 188.513C279.284 188.671 279.518 189.17 279.364 189.626C279.212 190.084 278.727 190.323 278.292 190.165C256.02 182.135 233.074 197.626 220.186 213.334C212.597 222.582 206.408 233.205 200.423 243.478C194.988 252.805 189.37 262.449 182.692 271.104C168.736 289.192 150.272 302.95 129.297 310.894C120.276 314.311 110.767 316.64 101.574 318.894C90.1999 321.681 78.4406 324.566 67.6265 329.515C36.8701 343.6 12.8375 376.003 4.90845 414.078C-3.88652 456.308 6.98593 496.396 17.6523 522.593C17.8334 523.038 17.6336 523.552 17.2048 523.739C17.0611 523.803 16.9071 523.821 16.7634 523.8Z" fill="#F4D0B5"/>
<path d="M337.827 202.633C303.561 189.839 262.393 190.195 233.716 213.49C214.583 229.031 203.357 252.457 190.751 274.012C178.14 295.566 161.97 317.167 138.718 324.49C121.423 329.938 102.701 326.634 84.8696 329.705C50.2768 335.664 22.2203 366.905 15.049 402.524C7.87978 438.144 20.0283 476.37 43.2179 503.666C66.4054 530.962 99.5994 547.868 134.024 554.808C168.448 561.748 204.125 559.272 238.547 552.314C281.371 543.655 323.348 527.83 358.881 501.563C394.419 475.293 423.219 438.042 435.705 394.661C446.242 358.042 445.932 307.261 426.468 273.219C408.508 241.809 370.043 214.659 337.827 202.633Z" fill="#F4D0B5"/>
<path d="M327.997 39.0627C288.564 48.4895 259.3 87.3407 253.453 128.891C247.607 170.439 262.495 213.154 287.275 246.352C306.803 272.518 334.108 294.463 365.768 298.473C412.374 304.375 457.606 267.859 473.171 221.895C486.239 183.305 485.513 112.531 455.331 81.3104C426.55 51.5384 367.714 29.566 327.997 39.0627Z" fill="#B84646"/>
<path d="M226.797 434.841C225.773 439.052 221.382 440.603 217.885 441.16C210.335 442.365 202.641 442.124 195.274 440.56C202.754 438.79 209.548 433.882 213.478 426.989C213.516 426.924 213.52 426.849 213.549 426.782C217.687 428.711 221.736 430.83 225.668 433.178C225.721 433.209 225.787 433.211 225.843 433.239C225.9 433.266 225.947 433.308 226.006 433.329C226.333 433.446 226.655 433.57 226.976 433.69C226.938 434.085 226.886 434.473 226.797 434.841ZM201.015 409.359C203.205 412.133 204.438 415.653 204.494 419.226C199.14 417.242 193.657 415.581 188.061 414.259C187.497 411.769 186.554 409.404 185.205 407.29C188.38 407.317 191.529 407.54 194.675 408.016C196.833 408.339 198.95 408.79 201.015 409.359ZM207.827 420.485C207.989 417.22 207.34 413.954 205.984 411.022C208.972 412.182 211.813 413.609 214.467 415.285C214.492 415.358 214.49 415.434 214.523 415.509C215.795 418.289 216.536 421.359 216.732 424.435C213.809 423.02 210.843 421.69 207.827 420.485ZM181.027 407.371C182.516 409.151 183.65 411.203 184.371 413.433C182.895 413.126 181.392 412.835 179.849 412.573C179.641 412.489 179.425 412.453 179.204 412.46C172.836 411.381 166.45 410.754 160.128 410.582C167.451 408.845 174.329 407.687 181.027 407.371ZM153.325 414.085C160.461 413.909 167.68 414.324 174.889 415.333C170.109 418.389 164.268 419.673 158.723 418.772C156.966 417.186 155.169 415.617 153.325 414.085ZM162.896 422.537C168.964 422.376 174.993 420.104 179.654 416.089C181.952 416.488 184.196 416.931 186.315 417.425C189.002 418.039 191.652 418.754 194.286 419.524C189.092 426.297 180.653 430.483 172.32 430.307C172.303 430.307 172.293 430.316 172.278 430.316C169.016 427.93 165.908 425.254 162.896 422.537ZM186.406 437.985C183.157 436.764 180.03 435.254 177.054 433.489C185.257 432.279 192.862 427.599 197.737 420.575C202.065 421.966 206.311 423.568 210.464 425.38C205.743 433.503 196.492 438.461 187.374 437.721C187.016 437.693 186.692 437.809 186.406 437.985ZM226.57 429.698C224.382 428.407 222.155 427.192 219.9 426.03C220.067 425.75 220.179 425.434 220.169 425.082C220.098 422.936 219.757 420.788 219.209 418.702C222.887 421.855 225.556 425.94 226.57 429.698ZM235.334 392.871C233.194 391.58 231.189 390.102 229.305 388.49C229.998 388.646 230.691 388.795 231.393 388.892C233.953 389.249 236.555 389.19 239.103 388.75C241.277 392.128 243.735 395.128 246.414 397.675C246.177 397.608 245.956 397.545 245.679 397.463C242.078 396.387 238.596 394.841 235.334 392.871ZM216.597 370.781C220.229 373.715 224.605 375.667 229.168 376.303C230.448 376.482 231.741 376.556 233.038 376.522C233.054 376.522 233.067 376.511 233.083 376.511C233.65 378.05 234.249 379.537 234.894 380.977C235.598 382.543 236.368 384.044 237.174 385.502C232.43 386.008 227.54 384.931 223.422 382.419C220.604 378.905 218.318 374.974 216.597 370.781ZM227.232 305.94C227.55 305.274 227.875 304.579 228.196 303.907C225.798 318.635 225.41 333.796 227.051 348.626C221.784 345.371 217.635 340.05 215.776 334.001C215.764 333.963 215.737 333.936 215.722 333.898C216.605 330.783 217.681 327.57 218.988 324.227C221.424 318.012 224.376 311.876 227.232 305.94ZM240.979 316.651C240.407 325.019 236.112 333.029 229.592 337.978C229.02 325.59 229.875 313.094 232.136 300.95C234.039 306.247 236.97 310.939 239.618 314.755C240.061 315.394 240.527 316.019 240.979 316.651ZM252.043 333.44C251.391 339.294 249.012 344.922 245.263 349.352C241.714 353.543 236.982 356.61 231.811 358.136C231.784 357.978 231.755 357.831 231.728 357.676C230.831 352.492 230.2 347.242 229.826 341.966C229.948 341.921 230.071 341.887 230.184 341.81C237.247 337.068 242.251 329.208 243.862 320.657C246.826 324.719 249.797 328.921 252.043 333.44ZM214.18 363.139C213.753 361.268 213.401 359.377 213.206 357.457C212.625 351.848 213.029 345.881 214.361 339.477C217.209 345.204 221.847 350.036 227.417 352.826C227.469 352.853 227.525 352.857 227.577 352.878C227.827 354.688 228.096 356.495 228.404 358.294C229.359 363.823 230.5 368.646 231.882 373.013C224.929 372.823 218.166 369.057 214.18 363.139ZM257.285 356.507C255.147 366.852 247.547 375.899 237.971 379.537C237.965 379.524 237.959 379.513 237.954 379.501C235.644 374.347 233.874 368.571 232.463 361.575C238.358 359.896 243.762 356.43 247.798 351.663C250.863 348.043 253.1 343.704 254.381 339.077C256.16 344.335 257.137 350.203 257.285 356.507ZM250.467 394.832C250.292 395.41 250.149 395.87 250.007 396.279C245.95 392.769 242.372 388.138 239.511 382.681C246.71 379.833 252.882 374.236 256.793 367.312C255.765 376.188 253.521 384.735 250.467 394.832ZM271.538 384.678C271.136 379.79 271.706 375.236 273.226 371.133C274.335 375.477 276.544 379.531 279.579 382.711C278.567 384.884 277.649 387.096 276.856 389.346C276.825 389.406 276.775 389.454 276.75 389.522C276.725 389.594 276.733 389.666 276.719 389.738C275.842 392.286 275.122 394.884 274.639 397.554C274.625 397.511 274.614 397.481 274.598 397.443L274.419 396.971C272.834 392.785 271.864 388.65 271.538 384.678ZM282.516 356.59C282.445 361.541 283.615 366.479 285.922 370.837C284.281 373.656 282.672 376.509 281.188 379.416C278.001 375.69 276.051 370.774 275.811 365.809C277.747 362.548 280.133 359.528 282.516 356.59ZM299.042 387.863C298.641 388.323 298.212 388.759 297.789 389.203C292.175 390.842 286.163 390.781 280.584 389.034C281.886 385.626 283.482 382.3 285.231 379.025C286.742 379.465 288.28 379.81 289.837 380.027C295 380.747 300.323 380.232 305.273 378.562C303.61 381.887 301.522 385.04 299.042 387.863ZM279.641 401.248C278.69 401.618 278.022 401.799 277.483 401.774C277.778 398.556 278.461 395.419 279.429 392.352C281.215 392.92 283.043 393.333 284.887 393.593C287.523 393.961 290.195 393.999 292.843 393.728C288.919 396.829 284.458 399.382 279.641 401.248ZM298.085 347.107C297.546 344.785 296.709 342.541 295.61 340.461L300.801 334.069C300.589 338.499 299.584 342.864 298.085 347.107ZM307.142 345.737C306.324 346.836 305.085 347.721 303.464 348.375C302.665 348.696 301.815 348.939 300.951 349.147C302.488 344.979 303.605 340.664 304.032 336.238C305.229 339.273 306.364 342.401 307.302 345.593C307.25 345.647 307.186 345.676 307.142 345.737ZM309.673 361.842C309.528 365.929 308.649 370.059 307.194 374.042C300.906 376.958 293.653 377.599 286.969 375.863C287.672 374.613 288.389 373.37 289.111 372.133C289.284 371.941 289.415 371.727 289.488 371.485C289.939 370.715 290.389 369.948 290.841 369.183L291.734 367.658C292.044 367.136 292.35 366.606 292.66 366.071C298.849 366.536 305.113 364.238 309.692 359.923C309.701 360.562 309.694 361.201 309.673 361.842ZM309.365 355.297C309.311 355.349 309.24 355.38 309.193 355.439C305.614 359.878 300.164 362.516 294.611 362.627C295.88 360.332 297.113 357.971 298.254 355.55C298.562 355.263 298.753 354.859 298.791 354.401C298.992 353.956 299.186 353.509 299.382 353.06C301.13 352.713 302.927 352.343 304.682 351.641C306.108 351.068 307.309 350.321 308.318 349.44C308.77 351.377 309.128 353.331 309.365 355.297ZM286.417 351.783L293.255 343.361C294.7 346.531 295.458 350.068 295.437 353.564C293.449 357.849 291.128 361.964 288.855 365.836L287.989 367.31C285.907 362.469 285.337 356.985 286.417 351.783ZM435.363 559.214C401.637 545.109 366.763 530.521 336.529 508.472C320.598 496.863 305.945 483.031 292.987 467.348C288.676 462.153 284.442 456.581 280.401 450.79C275.67 436.125 274.854 420.801 277.96 405.216C278.792 405.159 279.731 404.954 280.82 404.529C287.976 401.758 294.402 397.56 299.571 392.322C300.092 392.142 300.448 391.717 300.61 391.212C300.918 390.88 301.241 390.56 301.536 390.221C305.296 385.94 308.179 381.088 310.138 375.96C310.146 375.936 310.156 375.915 310.163 375.893C311.87 371.404 312.877 366.707 313.046 361.97C313.47 349.847 308.639 338.319 304.38 328.15C304.147 327.594 303.653 327.204 303.077 327.116C302.508 327.069 301.917 327.256 301.54 327.718L284.032 349.287C283.732 349.47 283.509 349.763 283.366 350.108L280.443 353.708C277.951 356.773 275.253 360.12 273.036 363.821C272.737 364.065 272.535 364.417 272.449 364.825C271.573 366.376 270.782 367.987 270.145 369.673C268.386 374.329 267.724 379.479 268.176 384.976C268.532 389.285 269.575 393.753 271.277 398.249L271.454 398.716C272.277 400.896 273.122 403.103 274.695 404.313C272.158 416.958 272.152 429.819 274.643 442.094C265.907 428.395 258.479 413.909 252.532 398.881C252.946 398.082 253.319 397.096 253.687 395.879C256.802 385.583 259.091 376.85 260.149 367.694C260.58 363.97 260.734 360.35 260.669 356.834C260.703 356.662 260.748 356.497 260.778 356.328C260.844 355.954 260.763 355.602 260.619 355.281C260.295 346.958 258.608 339.319 255.546 332.799C255.513 332.729 255.471 332.663 255.438 332.593C255.372 332.237 255.207 331.927 254.959 331.681C252.447 326.671 249.177 322.131 245.975 317.743C244.755 316.076 243.535 314.405 242.359 312.708C238.762 307.531 234.636 300.679 233.702 293.069C233.695 292.975 233.689 292.887 233.668 292.796C233.631 292.471 233.564 292.155 233.539 291.833C233.481 291.034 232.908 290.379 232.149 290.244C231.393 290.104 230.635 290.519 230.319 291.248C228.402 295.667 226.272 300.095 224.211 304.374C221.328 310.37 218.345 316.57 215.864 322.909C210.741 335.99 208.774 347.414 209.848 357.831C210.021 359.492 210.3 361.135 210.631 362.765C210.491 363.236 210.524 363.76 210.799 364.209C210.872 364.329 210.964 364.435 211.037 364.55C213.072 373.038 217.2 380.941 223.056 387.281C226.147 390.625 229.705 393.523 233.635 395.897C237.138 398.014 240.879 399.673 244.747 400.828C245.775 401.133 246.672 401.35 247.463 401.46C248.415 401.593 249.199 401.555 249.884 401.359C257.083 419.291 266.323 436.479 277.408 452.455C277.429 452.489 277.45 452.523 277.472 452.557C277.479 452.566 277.485 452.575 277.491 452.584C277.497 452.598 277.504 452.611 277.512 452.625C279.084 454.879 280.691 457.086 282.312 459.269C266.519 448.027 248.787 438.445 230.298 431.246C229.615 425.261 225.265 419.016 220.373 415.184C213.283 409.628 204.563 405.951 195.156 404.55C180.12 402.293 165.205 405.234 147.48 410.316C146.851 410.497 146.378 411.036 146.266 411.704C146.254 411.781 146.262 411.855 146.262 411.934C146.177 412.162 146.127 412.41 146.143 412.67C146.204 413.636 147.011 414.36 147.938 414.302C147.981 414.299 148.031 414.297 148.077 414.295C150.848 416.403 153.523 418.714 156.121 421.054C156.322 421.548 156.718 421.939 157.253 422.076C157.671 422.458 158.094 422.839 158.51 423.216C162.709 427.03 167.049 430.977 171.816 434.268C179.893 439.847 189.327 443.428 199.144 444.796C205.489 445.683 211.996 445.644 218.397 444.622C226.568 443.318 229.253 439.048 230.067 435.698C230.127 435.457 230.157 435.211 230.2 434.967C252.11 443.62 272.941 455.61 290.56 469.786C303.67 485.622 318.481 499.6 334.589 511.338C365.141 533.62 400.198 548.282 434.102 562.464C434.235 562.518 434.373 562.557 434.508 562.575C435.255 562.681 436.003 562.252 436.298 561.494C436.646 560.598 436.227 559.578 435.363 559.214Z" fill="#FFFDF6"/>
<path d="M387.409 2.09088C383.108 1.49055 378.968 1.61694 375.194 2.70699C358.94 7.40344 339.138 22.9214 329.131 38.8072C318.327 55.9545 316.866 77.8276 325.495 93.244C335.305 110.777 355.456 118.649 373.574 124.652C385.4 128.57 397.876 132.034 409.025 127.742C420.232 123.427 427.497 112.321 434.554 100.342C440.499 90.2582 447.236 78.8319 448.022 66.223C448.853 52.8942 442.65 38.3896 431.003 26.4285C421.128 16.2818 403.188 4.29128 387.409 2.09088ZM391.196 130.994C385.128 130.148 379.014 128.292 373.06 126.32C354.644 120.22 334.146 112.197 324.035 94.1242C315.097 78.1504 316.577 55.537 327.718 37.8503C337.922 21.6485 358.139 5.81689 374.742 1.02115C393.002 -4.25305 419.331 11.9735 432.192 25.1827C444.182 37.5027 450.568 52.5016 449.707 66.3359C448.895 79.3736 442.042 90.9985 435.995 101.256C428.776 113.506 421.325 124.871 409.61 129.383C403.688 131.664 397.468 131.87 391.196 130.994Z" fill="#F4D0B5"/>
<path d="M346.262 28.3469C336.651 38.55 331.23 52.2873 331.392 66.0427C331.561 80.2336 337.791 93.8829 348.058 102.554C355.998 109.259 366.687 113.474 379.799 115.063C390.074 116.316 398.671 115.603 406.084 112.883C420.323 107.665 431.451 93.8513 434.438 77.6902C437.282 62.3234 432.9 45.4988 422.721 32.6823C415.262 23.2894 404.979 16.1917 392.98 12.1565C384.152 9.18877 373.998 10.6805 361.945 16.7266C355.989 19.7146 350.714 23.6234 346.262 28.3469ZM378.026 116.598C365.298 114.822 354.863 110.556 346.994 103.912C336.341 94.9165 329.879 80.7662 329.706 66.0607C329.538 51.8495 335.131 37.6563 345.056 27.1237C349.644 22.2535 355.077 18.2273 361.21 15.1513C373.675 8.89764 384.239 7.37203 393.501 10.491C405.805 14.6277 416.359 21.9173 424.024 31.5674C434.517 44.7834 439.03 62.1474 436.095 78.0197C432.998 94.7811 421.436 109.114 406.648 114.535C398.984 117.345 390.139 118.085 379.606 116.803C379.075 116.74 378.548 116.67 378.026 116.598Z" fill="#F4D0B5"/>
<path d="M380.022 17.93C375.986 17.3681 371.812 20.2545 368.122 22.8115C367.495 23.2448 366.885 23.6669 366.294 24.0595C359.822 28.3588 354.501 33.3735 350.473 38.9591C343.306 48.9027 340.292 60.7826 342.199 71.5612C344.195 82.8408 351.273 91.6717 356.862 97.0949C363.654 103.692 370.965 108.138 378.582 110.309C387.104 112.735 396.076 112.058 403.199 108.451C409.282 105.371 414.632 100.169 420.542 91.5837C424.611 85.6708 429.31 77.7539 429.497 68.9591C429.628 62.8792 427.532 56.208 423.273 49.1329C417.063 38.8192 408.131 30.2839 397.442 24.4477C391.342 21.1212 385.582 18.9456 380.324 17.9797C380.224 17.9616 380.122 17.9436 380.022 17.93ZM383.461 113.123C381.679 112.872 379.897 112.498 378.134 111.997C370.251 109.751 362.705 105.165 355.707 98.3745C349.934 92.7708 342.619 83.6239 340.54 71.8771C338.546 60.6224 341.676 48.2437 349.124 37.9119C353.273 32.1548 358.744 26.9979 365.382 22.5858C365.967 22.1977 366.569 21.7824 367.187 21.3536C371.234 18.5529 375.809 15.3392 380.618 16.2554C386.049 17.253 391.973 19.4872 398.226 22.8995C409.182 28.8779 418.339 37.6276 424.703 48.2053C429.139 55.5738 431.32 62.57 431.185 68.9997C430.987 78.2685 426.127 86.4833 421.916 92.6016C418.139 98.0856 412.167 105.858 403.943 110.026C397.933 113.066 390.693 114.132 383.461 113.123Z" fill="#F4D0B5"/>
<path d="M354.015 65.6453C353.287 71.8832 353.865 76.8821 355.778 80.9263C357.841 85.2865 361.807 89.0982 367.567 92.2533C378.556 98.2767 391.173 99.4277 401.316 95.3293C412.655 90.7502 420.505 79.4887 420.409 67.945C420.341 59.9807 416.75 53.1516 413.746 48.8207C406.916 38.9719 396.266 32.0345 384.528 29.7889L383.246 29.5361C378.953 28.6808 375.569 28.0083 372.136 30.9309C367.692 34.7133 363.67 39.755 360.502 45.5099C357.067 51.7568 354.823 58.7191 354.015 65.6453ZM382.58 99.0937C377.219 98.3467 371.832 96.5706 366.778 93.8015C360.697 90.4704 356.486 86.3968 354.263 81.6959C352.2 77.3402 351.571 72.0209 352.337 65.4354L352.339 65.4332C353.176 58.2791 355.491 51.0888 359.036 44.6411C362.304 38.7034 366.463 33.4924 371.066 29.5768C375.113 26.1329 379.032 26.916 383.562 27.8165L384.836 28.067C396.995 30.3937 408.034 37.5862 415.118 47.7984C418.261 52.3346 422.025 59.5068 422.096 67.9292C422.2 80.1838 413.906 92.1224 401.928 96.961C396.023 99.3465 389.326 100.035 382.58 99.0937Z" fill="#F4D0B5"/>
<path d="M386.489 36.7052C386.036 36.642 385.58 36.5924 385.13 36.5631C379.793 36.1907 375.053 38.048 371.422 41.9388C367.19 46.4728 364.826 52.6113 363.067 58.0187C360.019 67.4116 360.102 73.9158 363.329 78.4903C366.483 82.9521 372.178 84.6041 377.74 85.9108C384.152 87.4206 390.384 88.6348 396.186 86.9828C403.128 85.008 408.823 78.8018 410.688 71.176C412.46 63.9338 410.803 55.7844 406.253 49.375C401.488 42.6655 393.696 37.7118 386.489 36.7052ZM385.07 89.1448C382.532 88.7905 379.965 88.2285 377.368 87.6192C371.493 86.238 365.467 84.4754 361.967 79.524C357.261 72.8618 359.428 63.7397 361.47 57.4567C363.287 51.8666 365.744 45.5046 370.211 40.7201C374.197 36.448 379.395 34.4078 385.244 34.8163C393.409 35.403 402.185 40.693 407.612 48.3369C412.458 55.1615 414.219 63.8593 412.323 71.607C410.312 79.8354 404.152 86.5314 396.629 88.6731C392.874 89.7406 389.008 89.6955 385.07 89.1448Z" fill="#F4D0B5"/>
<path d="M388.915 46.4694C387.957 46.3363 386.993 46.2708 386.036 46.2776C381.229 46.3114 377.23 48.1823 374.776 51.5405C372.128 55.1649 370.852 59.656 369.616 63.9936C368.494 67.9386 367.476 72.4138 369.637 75.5757C371.117 77.74 373.702 78.7375 376.675 79.726C380.792 81.0958 385.459 82.644 389.997 82.2626C396.063 81.7571 401.784 77.5301 404.232 71.7503C406.678 65.9684 405.805 58.7398 402.065 53.7612C399.19 49.9381 394.144 47.2006 388.915 46.4694ZM385.413 83.8447C382.179 83.3933 379.039 82.3506 376.161 81.3915C373.64 80.5542 370.186 79.4077 368.261 76.589C365.663 72.7862 366.764 67.8393 367.996 63.4994C369.216 59.2159 370.596 54.3638 373.431 50.4843C376.208 46.6815 380.682 44.5646 386.025 44.5263C392.71 44.4766 399.687 47.7558 403.393 52.6847C407.508 58.1575 408.466 66.0993 405.776 72.4522C403.085 78.8074 396.798 83.452 390.133 84.0117C388.548 84.1426 386.971 84.0613 385.413 83.8447Z" fill="#F4D0B5"/>
<path d="M377.818 60.7613C376.267 63.7764 375.018 66.4959 375.468 69.2673C375.876 71.7927 377.805 74.0811 380.501 75.2411C382.735 76.2025 385.441 76.453 388.772 76.0129C391.871 75.5999 394.33 74.7604 396.286 73.4447C398.624 71.8717 400.196 69.5742 400.6 67.1436C401.147 63.8306 399.473 60.0572 396.336 57.525C392.3 54.273 388.622 52.9866 385.412 53.6952C382.452 54.3474 379.895 56.7261 377.818 60.7613ZM383.336 77.8116C382.081 77.6379 380.926 77.3174 379.856 76.8593C376.627 75.4713 374.306 72.6728 373.802 69.5562C373.224 65.9746 375.018 62.4833 376.332 59.9353C378.653 55.4239 381.59 52.7496 385.06 51.9823C388.786 51.1631 392.925 52.5578 397.371 56.1439C400.995 59.0642 402.916 63.4989 402.261 67.4415C401.78 70.3506 399.938 73.0746 397.204 74.9139C395.031 76.3763 392.344 77.3038 388.986 77.7484C386.9 78.0238 385.029 78.0463 383.336 77.8116Z" fill="#F4D0B5"/>
<path d="M382.309 71.5144C383.703 72.5367 385.525 72.9474 387.313 72.636C391.014 71.986 393.547 67.3776 393.345 63.6922C393.258 62.1215 392.6 59.4539 389.043 59.2643C385.327 59.0612 381.06 61.8777 379.919 65.2946C379.134 67.6349 379.958 69.7856 382.309 71.5144ZM384.977 74.4076C383.655 74.2226 382.398 73.7238 381.334 72.9429H381.332C378.395 70.7809 377.298 67.7838 378.324 64.7191C379.713 60.571 384.663 57.2715 389.132 57.5153C392.623 57.7116 394.83 59.9775 395.029 63.5907C395.275 68.0253 392.282 73.5387 387.594 74.3625C386.717 74.5137 385.833 74.5272 384.977 74.4076Z" fill="#F4D0B5"/>
<path d="M140.242 466.857C140.275 466.862 140.304 466.866 140.337 466.873C141.826 467.135 142.829 468.597 142.577 470.146L140.369 483.687C140.115 485.235 138.678 486.259 137.213 486.011C135.722 485.752 134.719 484.287 134.971 482.739L137.179 469.198C137.427 467.683 138.787 466.654 140.242 466.857Z" fill="#FFFDF6"/>
<path d="M103.353 454.057C104.756 454.253 105.801 455.54 105.718 457.031L105.064 468.884C104.979 470.451 103.684 471.647 102.177 471.559C100.67 471.473 99.5126 470.128 99.6 468.562L100.254 456.709C100.339 455.143 101.634 453.946 103.141 454.034C103.214 454.039 103.285 454.048 103.353 454.057Z" fill="#FFFDF6"/>
<path d="M85.2932 452.955C86.6983 453.151 87.7433 454.44 87.658 455.934L87.0668 466.372C86.9773 467.938 85.6825 469.132 84.1733 469.04C82.6703 468.956 81.515 467.604 81.6024 466.04L82.1936 455.602C82.2831 454.036 83.5779 452.84 85.085 452.933C85.1558 452.937 85.2245 452.944 85.2932 452.955Z" fill="#FFFDF6"/>
<path d="M68.1074 443.908C69.4042 444.089 70.4263 445.219 70.4742 446.623L70.7323 454.323C70.7844 455.892 69.602 457.208 68.0886 457.259C66.5773 457.307 65.3117 456.086 65.2617 454.52L65.0036 446.822C64.9495 445.255 66.134 443.94 67.6431 443.883C67.8014 443.879 67.9575 443.888 68.1074 443.908Z" fill="#FFFDF6"/>
<path d="M54.4547 471.603C55.9535 471.812 57.0047 473.241 56.8028 474.794L56.4385 477.608C56.2366 479.165 54.8585 480.255 53.3618 480.045C51.863 479.835 50.8118 478.409 51.0137 476.852L51.3759 474.038C51.5799 472.485 52.9559 471.393 54.4547 471.603Z" fill="#FFFDF6"/>
<path d="M58.2113 424.846C59.7121 425.056 60.7613 426.487 60.5594 428.039L58.7962 441.641C58.5964 443.199 57.2183 444.289 55.7216 444.079C54.2207 443.871 53.1716 442.44 53.3735 440.885L55.1346 427.283C55.3365 425.729 56.7125 424.636 58.2113 424.846Z" fill="#FFFDF6"/>
<path d="M123.446 440.637C123.477 440.642 123.508 440.646 123.54 440.653C125.03 440.913 126.033 442.38 125.782 443.926L124.027 454.67C123.775 456.216 122.341 457.232 120.873 456.995C119.383 456.733 118.377 455.266 118.631 453.72L120.384 442.978C120.629 441.463 121.991 440.434 123.446 440.637Z" fill="#FFFDF6"/>
<path d="M94.5407 417.976C96.0395 418.186 97.0907 419.615 96.8888 421.17L95.9167 428.674C95.7147 430.231 94.3367 431.319 92.84 431.109C91.3412 430.903 90.29 429.473 90.4919 427.918L91.464 420.412C91.6659 418.859 93.0419 417.767 94.5407 417.976Z" fill="#FFFDF6"/>
<path d="M71.8539 411.944C73.1695 412.129 74.1957 413.285 74.2228 414.707L74.3352 420.929C74.3644 422.5 73.1633 423.795 71.652 423.824C70.1428 423.86 68.8917 422.606 68.8626 421.037L68.7502 414.813C68.721 413.244 69.9221 411.949 71.4334 411.92C71.577 411.917 71.7186 411.926 71.8539 411.944Z" fill="#FFFDF6"/>
<path d="M115.109 405.088C115.19 405.101 115.27 405.115 115.351 405.135C116.825 405.481 117.751 406.999 117.418 408.527L115.199 418.728C114.864 420.258 113.386 421.217 111.926 420.872C110.453 420.527 109.524 419.008 109.859 417.478L112.078 407.279C112.393 405.833 113.721 404.896 115.109 405.088Z" fill="#FFFDF6"/>
<path d="M141.949 425.069C143.448 425.278 144.499 426.707 144.295 428.26L143.506 434.358C143.304 435.915 141.926 437.005 140.429 436.795C138.931 436.587 137.879 435.157 138.081 433.602L138.87 427.504C139.072 425.951 140.45 424.859 141.949 425.069Z" fill="#FFFDF6"/>
<path d="M98.9175 384.201C100.416 384.411 101.467 385.84 101.266 387.395L99.5649 400.529C99.3629 402.084 97.9849 403.174 96.4861 402.964C94.9873 402.757 93.9361 401.328 94.138 399.771L95.8408 386.639C96.0427 385.084 97.4187 383.991 98.9175 384.201Z" fill="#FFFDF6"/>
<path d="M69.1686 382.449C70.4696 382.632 71.4917 383.765 71.5375 385.171L71.8081 393.803C71.856 395.372 70.6716 396.685 69.1603 396.735C67.649 396.789 66.3855 395.557 66.3355 393.988L66.0649 385.356C66.0149 383.79 67.2015 382.478 68.7107 382.424C68.8668 382.42 69.0208 382.429 69.1686 382.449Z" fill="#FFFDF6"/>
<path d="M52.6313 404.01C54.0593 404.209 55.1043 405.536 54.9919 407.046L54.3487 415.552C54.2342 417.116 52.9165 418.285 51.4073 418.163C49.9065 418.025 48.774 416.673 48.8927 415.109L49.5359 406.601C49.6525 405.039 50.9702 403.87 52.4773 403.992C52.5273 403.997 52.5814 404.003 52.6313 404.01Z" fill="#FFFDF6"/>
<path d="M33.8477 426.634C35.0675 426.803 36.0625 427.818 36.202 429.145L37.2074 438.845C37.3677 440.407 36.2811 441.808 34.7782 441.973C33.2731 442.147 31.9284 441.012 31.766 439.455L30.7606 429.755C30.5961 428.193 31.6848 426.791 33.1878 426.627C33.4105 426.6 33.6312 426.604 33.8477 426.634Z" fill="#FFFDF6"/>
</svg>
