<svg width="183" height="91" viewBox="0 0 183 91" fill="none" xmlns="http://www.w3.org/2000/svg">
<g opacity="0.5">
<mask id="mask0_13_194" style="mask-type:luminance" maskUnits="userSpaceOnUse" x="0" y="0" width="184" height="91">
<path d="M6.10352e-05 -7.62939e-06H183.006V90.8349H6.10352e-05V-7.62939e-06Z" fill="white"/>
</mask>
<g mask="url(#mask0_13_194)">
<path d="M5.1878 74.3332C7.10917 77.6214 10.3149 80.1129 13.758 80.9434C17.0782 81.7423 20.3609 80.7584 23.5313 79.7112C28.0381 78.224 32.422 76.326 36.679 74.1391C49.5769 67.5108 61.7046 58.4023 72.8206 48.3707C70.6723 51.1601 68.6032 54.024 66.33 56.4276C59.5647 63.5862 52.5266 70.6027 44.8328 76.5787C37.6928 82.1237 28.3462 88.9213 19.1973 88.7814C14.4282 88.7092 10.2837 86.3553 7.68162 81.9928C6.20989 79.5284 5.56666 76.9917 5.1878 74.3332ZM6.30981 72.7602C9.67792 74.5634 14.0764 74.0737 17.6527 72.9836C25.5713 70.5688 33.2505 66.2944 40.8361 62.8708C50.4637 58.5241 60.3078 54.2475 69.5004 48.7724C61.307 55.7302 53.0782 62.5887 43.9377 68.2014C36.9017 72.521 29.4307 76.2267 21.6349 78.6234C14.9965 80.6636 9.32612 78.5173 6.14328 72.9204C6.20573 72.8775 6.26402 72.8279 6.30981 72.7602ZM74.7482 43.268C71.4134 45.5655 68.0953 47.8968 64.5648 49.8444C58.3656 53.268 51.8979 56.0484 45.4511 58.8649C38.8418 61.7469 32.2284 64.6153 25.6109 67.4679C19.3534 70.1648 11.4369 74.4302 5.24193 69.736C4.91302 69.0951 4.59037 68.4587 4.28645 67.8223C7.26321 67.4882 10.1359 66.0822 12.9732 65.0712C16.5286 63.8051 20.0654 62.4758 23.6208 61.203C30.2238 58.8378 36.8455 56.5449 43.461 54.2271L63.3075 47.2739C66.8692 46.0258 70.4329 44.7801 73.9926 43.5253C74.2403 43.4373 74.4942 43.3538 74.7482 43.268ZM73.3639 41.4152C69.8001 42.6519 66.2384 43.9022 62.6746 45.1479C56.0571 47.4612 49.4416 49.7767 42.8261 52.0899C36.2085 54.4032 29.5993 56.7412 22.9693 59.0094C19.3992 60.2303 15.8125 61.3971 12.2425 62.6225C9.33653 63.62 6.12038 64.3309 3.49334 66.0416C3.26852 65.4932 3.05619 64.9403 2.87509 64.3783C6.22238 58.4181 12.128 55.1931 17.6298 51.9771C24.0954 48.1992 30.7047 45.992 37.8864 44.4754C45.4802 42.8686 53.1573 41.6769 60.8428 40.7426C67.1294 39.9776 73.4534 39.7474 79.7462 39.1651C77.5855 39.7541 75.4664 40.6839 73.3639 41.4152ZM74.1487 37.899C68.6261 38.1608 63.0743 38.8198 57.6558 39.4359C49.885 40.3183 42.0954 41.5167 34.4371 43.2161C27.1013 44.8455 20.6399 47.8133 14.1743 51.8349C9.67376 54.6334 5.31686 57.583 2.33386 62.1644C2.29223 61.9274 2.24019 61.695 2.20896 61.4535C4.81102 54.3942 11.8345 49.5488 17.8026 46.0868C23.8789 42.5616 30.4923 40.1017 37.2265 38.5467C49.5686 35.7009 61.8191 36.5359 74.1487 37.899ZM69.1548 35.3962C57.6162 34.1211 45.7654 34.516 34.6515 37.2694C27.1055 39.138 19.8031 42.284 13.3083 46.8767C9.57384 49.5194 4.8256 52.9114 2.26309 57.3213C2.88134 53.0807 5.05666 49.1786 7.86272 46.2132C14.2929 39.4134 23.3856 37.3777 31.9474 35.8837C40.2886 34.4258 48.7505 33.3312 57.2124 33.6449C61.3861 33.8029 65.3017 34.4664 69.1548 35.3962ZM99.1514 31.9907C99.0785 31.7514 99.0119 31.51 98.9411 31.2707C98.9661 31.264 98.989 31.2707 99.0161 31.2617C115.496 25.6761 131.432 18.0773 148.143 13.2996C148.285 13.259 148.428 13.2207 148.57 13.18C144.977 14.5296 141.398 15.8882 137.837 17.2017C135.847 17.9352 133.863 18.6889 131.877 19.4337C126.619 20.9706 121.419 22.7174 116.589 25.1254C116.421 25.2089 116.306 25.3308 116.215 25.4617C113.646 26.475 111.079 27.4951 108.519 28.5355C107.139 29.0974 105.744 29.5646 104.42 30.1604C104.283 30.1243 104.133 30.1152 103.96 30.1739C102.594 30.6388 100.967 30.9457 99.6884 31.6296C99.4699 31.7447 99.2992 31.862 99.1514 31.9907ZM144.966 26.721C146.392 26.1161 147.793 25.4617 149.178 24.7778C151.659 24.0963 154.149 23.426 156.642 22.7648C156.734 22.7399 156.828 22.7151 156.921 22.6925C154.929 23.4192 152.933 24.1347 150.928 24.8185C148.951 25.491 146.959 26.1184 144.966 26.721ZM148.566 10.9255C157.142 7.44319 165.812 4.31072 174.969 3.00628C175.46 2.93632 175.754 2.57297 175.854 2.16222C176.056 2.17802 176.247 2.23444 176.443 2.27055C176.491 2.29989 176.535 2.33826 176.582 2.36985C176.37 3.93383 170.704 5.06901 170.223 5.19314C168.691 5.59033 167.161 5.9898 165.629 6.39377C162.567 7.1972 159.503 8.00063 156.44 8.80631C153.809 9.4969 151.184 10.1965 148.566 10.9255ZM98.2271 28.8401C100.84 27.6553 103.558 26.7413 106.31 25.9175C103.656 26.9647 101.006 28.0187 98.377 29.1132C98.352 29.1245 98.3416 29.1426 98.3187 29.1538C98.2854 29.05 98.2584 28.9439 98.2271 28.8401ZM11.4099 88.6392C18.781 93.3582 27.7529 89.5667 34.6681 85.7256C46.902 78.9371 57.2207 68.5986 66.9191 58.4023C68.8821 56.3373 70.9325 54.7665 73.0829 52.9317C75.7682 50.6343 79.332 47.8742 82.5023 42.3021C88.2331 40.1694 92.3652 38.4294 98.2188 36.3463C98.2604 36.3508 99.4074 40.4447 99.9362 42.3472C100.3 43.6675 174.03 18.9801 178.441 16.3577C181.408 14.6244 182.224 13.5411 182.977 11.4174C183.167 10.8871 182.355 6.19517 181.41 4.60411C181.406 4.59283 179.747 1.25272 178.14 0.541824C178.027 0.401901 177.861 0.300346 177.632 0.280037C177.575 0.277779 177.519 0.280037 177.465 0.27552C176.316 -0.083313 175.086 -0.101372 173.889 0.282288C168.493 0.609528 95.5522 26.0642 95.4419 26.1951C94.7549 26.2154 96.6034 31.2843 96.8845 32.2096C97.178 33.1732 89.0221 35.5497 80.9099 38.391C80.9099 38.391 79.536 37.1272 78.8699 36.6803C72.4979 32.4195 61.3112 31.4987 53.4217 31.8733C43.1134 32.3608 32.3013 33.2116 22.2781 35.9311C13.9141 38.2014 5.45009 42.925 1.63859 51.7898C-0.794858 57.4476 -0.709511 65.7031 3.21648 70.6433C2.48374 77.3867 6.11205 85.2472 11.4099 88.6392Z" fill="#683C1A"/>
</g>
</g>
</svg>
