<svg xmlns="http://www.w3.org/2000/svg" version="1.1" xmlns:xlink="http://www.w3.org/1999/xlink" xmlns:svgjs="http://svgjs.dev/svgjs" width="1000" height="1000"><g clip-path="url(#SvgjsClipPath1053)"><rect width="1000" height="1000" fill="#ffffff"></rect><g transform="matrix(12.068965517241379,0,0,12.068965517241379,192.24137931034483,150)"><svg xmlns="http://www.w3.org/2000/svg" version="1.1" xmlns:xlink="http://www.w3.org/1999/xlink" xmlns:svgjs="http://svgjs.dev/svgjs" width="51" height="58"><svg width="51" height="58" viewBox="0 0 51 58" fill="none" xmlns="http://www.w3.org/2000/svg">
<g opacity="0.5">
<mask id="mask0_46_134" style="mask-type:luminance" maskUnits="userSpaceOnUse" x="-1" y="0" width="52" height="58">
<path d="M-0.00012207 -3.16351e-06H50.0212V57.6878H-0.00012207V-3.16351e-06Z" fill="white"></path>
</mask>
<g mask="url(#mask0_46_134)">
<path d="M47.8906 32.7082C47.5346 33.9788 47.1183 35.2302 46.6655 36.4568C46.6395 36.476 46.6177 36.5008 46.6 36.5346C46.3845 36.9307 46.1805 37.3324 45.9817 37.7341C47.6803 33.2171 48.2663 28.2352 48.1362 23.3796C48.0988 21.9646 48.0207 20.193 47.7355 18.4643C47.798 18.655 47.8729 18.8321 47.9312 19.0285C49.278 23.5748 48.8076 28.014 47.8469 32.575C47.8354 32.6303 47.8583 32.6743 47.8906 32.7082ZM39.0623 48.9099C35.1207 52.0503 31.1302 54.4933 26.1269 54.6479C21.2319 54.8003 16.4972 53.0738 12.4162 50.2031C8.43188 47.4001 5.97762 43.1291 3.50254 38.8569C3.48588 38.8287 3.44633 38.8535 3.4609 38.884C5.73927 43.3548 8.23725 47.6721 12.1986 50.6059C16.4098 53.726 21.31 55.5168 26.4371 55.3204C31.0303 55.1455 34.8189 53.1268 38.4534 50.3419C37.1108 51.7738 35.588 52.9812 33.7853 53.8513C30.1622 55.6014 26.078 56.002 22.1666 55.5394C18.2947 55.0835 14.8371 53.717 11.6876 51.2232C8.66398 48.8298 6.23782 45.9433 4.00109 42.7353C1.65923 37.3663 0.720411 31.4715 1.13882 25.6331C1.30015 24.2801 1.50623 22.935 1.74146 21.6058C1.94026 20.4785 2.16299 19.3534 2.41591 18.2363C2.70942 17.1734 3.04457 16.1217 3.43176 15.0858C2.92384 17.8075 2.70526 20.6037 2.59181 23.2307C2.30455 29.8409 3.2288 36.8687 6.66976 42.4814C9.8141 47.61 15.2566 51.898 21.1612 51.5561C21.3922 51.5425 21.386 51.1972 21.1612 51.1724C10.0545 49.9357 4.00317 39.0239 3.45154 27.7387C3.17051 22.0052 3.65033 15.6297 5.68618 10.2821C6.70827 7.59991 8.29553 5.11514 10.5416 3.47556C12.9053 1.74909 15.5116 1.4952 18.2833 1.79423C19.2159 1.89353 20.1006 2.01991 20.9332 2.2896C23.3969 4.17744 24.8571 6.77504 25.6773 9.94023C26.1384 11.7164 26.4371 13.5636 26.5162 15.4074C26.5755 16.8044 26.3497 18.1664 26.2685 19.5396C25.5743 21.8709 25.2797 24.3647 25.4088 26.7852C25.5378 29.2 26.7275 32.5683 29.5336 32.1677C32.4229 31.757 32.4572 27.5119 32.4364 25.1659C32.4198 23.1991 32.0669 18.9811 29.6293 18.9292C29.7167 18.084 29.8583 17.276 30.0706 16.4331C30.1986 16.204 30.3288 15.9772 30.4609 15.7493C30.4693 15.7358 30.4651 15.7233 30.4672 15.7109C32.452 13.2386 35.2758 11.792 38.5346 12.935C40.8359 13.7419 42.8166 15.7346 43.6378 18.2138C44.511 20.8531 43.9656 23.7418 43.211 26.3304C40.7776 34.6773 34.8522 42.8526 27.4759 46.6881C27.3447 46.7558 27.4602 46.9781 27.5903 46.9002C32.1148 44.2293 35.9544 41.2187 39.0758 36.6926C42.0058 32.4464 44.7275 26.7761 44.8025 21.3631C44.868 16.6306 41.6248 12.381 37.2367 11.7841C34.1808 11.3688 30.7919 13.1257 29.1505 15.9885C27.3291 17.9723 26.4277 21.3665 26.7369 24.279C26.7546 25.2291 26.8795 26.1025 27.0689 26.6847C27.3614 27.5807 28.065 29.0081 29.136 28.699C29.1599 28.6922 29.1755 28.6764 29.1995 28.6685C29.4253 28.6391 29.6626 28.5128 29.9103 28.2442C30.8356 27.2365 31.0417 25.3611 30.9158 23.8062C30.9158 23.7858 30.9147 23.7667 30.9147 23.7452C30.9366 23.3255 30.921 22.9046 30.8304 22.504C30.8221 22.4611 30.8159 22.4114 30.8065 22.3776C30.8034 22.3618 30.793 22.3562 30.7857 22.3449C30.7701 22.2907 30.7586 22.2343 30.7399 22.1801C30.6962 22.0537 30.5432 22.0515 30.5005 22.1801C30.2028 23.0828 30.2247 24.0894 30.0654 25.0282C30.0602 25.061 30.054 25.1004 30.0488 25.1343C29.9978 25.1625 29.953 25.2088 29.926 25.2833C29.8312 25.5484 29.7969 26.0021 29.7365 26.4038C29.7292 26.4173 29.7251 26.4331 29.7178 26.4455C29.3441 27.0842 28.9184 27.0797 28.5177 26.8675C28.4823 26.8213 28.448 26.7874 28.4116 26.7344C27.4811 25.3961 27.6309 21.7626 28.8799 20.4909C29.4711 20.4401 30.0633 20.3905 30.6545 20.3397C30.9314 20.492 31.2863 21.4602 31.381 21.7795C31.584 22.4588 31.6048 23.2171 31.6319 23.9269C31.687 25.3431 31.7016 26.8134 31.4924 28.2171C31.2145 30.0767 29.9062 32.2196 27.9244 30.9027C26.3153 29.833 26.1717 27.4227 26.1904 25.597C26.2206 22.7342 26.7816 19.8443 27.9786 17.2794C30.2892 12.3291 35.5048 8.72042 40.7151 10.1659C40.8775 10.2111 41.0284 10.2776 41.1866 10.3307C42.0703 10.7854 42.878 11.3248 43.6045 11.9499C43.2568 11.8405 42.8821 11.7694 42.4741 11.748C42.342 11.7412 42.3118 11.9714 42.4429 12.0007C47.824 13.2465 47.5034 21.3033 47.3702 25.9343C47.2203 31.186 46.1389 36.4489 43.618 40.984C38.5388 50.1185 28.6905 54.7213 19.0431 53.0907C18.8453 53.058 18.7558 53.3785 18.9588 53.4225C28.8196 55.5777 38.9957 50.7696 44.2227 41.5155C42.9331 44.297 41.5322 46.942 39.0623 48.9099ZM16.8095 55.6206C15.0713 54.956 13.5517 53.9133 12.1206 52.6969C13.8858 53.9618 15.7853 55.1433 17.7764 55.9219C17.4527 55.8384 17.1311 55.7436 16.8095 55.6206ZM9.73395 51.6779C9.33323 51.2514 8.95229 50.8012 8.58072 50.343C9.63819 51.3721 10.7227 52.3471 11.7854 53.2746C11.0881 52.7623 10.399 52.2376 9.73395 51.6779ZM3.49525 12.2117C3.09349 13.2882 2.72816 14.3794 2.41591 15.4886C2.03809 16.5877 1.70087 17.7037 1.40839 18.8423C1.42193 18.7655 1.43129 18.6888 1.44482 18.6132C1.8726 16.2819 2.58349 14.1831 3.49525 12.2117ZM24.9425 5.85651C25.3068 6.46473 25.6357 7.10002 25.9261 7.74322C26.9024 9.903 27.3572 12.2749 27.3416 14.6559C27.1334 12.6089 26.6307 10.5733 26.1207 8.96529C25.6919 7.61458 25.108 6.22889 24.3253 5.026C24.5397 5.29569 24.7458 5.57215 24.9425 5.85651ZM29.0402 13.7261C29.4128 13.0637 29.8292 12.4261 30.3048 11.8461C31.0573 10.9298 31.9368 10.1377 32.9235 9.534C35.5964 7.89555 38.9135 7.71388 41.7279 9.02622C43.3151 9.76646 44.6776 10.9242 45.7798 12.3347C44.6297 11.1059 43.2516 10.1242 41.6279 9.52949C36.9442 7.81431 32.0503 10.1219 29.009 14.0488C28.9975 13.9878 28.983 13.9213 28.9705 13.8581C28.9955 13.8152 29.0152 13.7689 29.0402 13.7261ZM49.7766 21.1567C49.8411 15.5101 46.1233 9.63105 41.2897 7.83462C38.4212 6.7694 35.128 7.10453 32.4968 8.74299C31.1375 9.5893 29.6397 10.984 28.7248 12.6146C28.704 12.5085 28.6884 12.4024 28.6645 12.2952C28.2232 9.80257 27.5175 7.0752 25.9979 5.21444C25.5066 4.47872 24.9373 3.82876 24.2764 3.30066C23.8767 2.88202 23.4458 2.4961 22.9753 2.15758C22.3769 1.72878 21.6691 1.4117 20.9103 1.17473C20.2588 0.818154 19.5812 0.531534 18.8828 0.326163C14.7299 -0.890265 9.51954 1.40154 6.96223 5.36227C3.78668 8.82311 1.73834 13.8141 0.868206 18.4394C0.323854 21.3383 0.163568 24.3139 0.122975 27.2715C-0.130986 30.8204 -0.0196183 34.3895 0.71 37.8842C1.70503 42.645 3.8075 47.0187 7.07985 50.4017C7.91563 51.2649 8.80554 52.0627 9.72875 52.8131C10.8549 53.9235 12.0925 54.8194 13.4133 55.5145C14.7372 56.4489 16.2547 57.4362 17.766 57.4452C18.1948 57.54 18.632 57.6032 19.0712 57.6371C20.0891 57.7138 21.2319 57.707 22.3633 57.5886C24.0443 57.6032 25.7304 57.4543 27.3707 57.162C33.6875 56.0392 39.3371 52.5479 42.8592 46.6768C46.7176 40.2471 50.0232 32.0244 50.0212 24.2361C50.0212 23.2171 49.9348 22.1824 49.7766 21.1567Z" fill="#683C1A"></path>
</g>
<mask id="mask1_46_134" style="mask-type:luminance" maskUnits="userSpaceOnUse" x="-1" y="0" width="52" height="58">
<path d="M-0.00012207 -3.16351e-06H50.0212V57.6878H-0.00012207V-3.16351e-06Z" fill="white"></path>
</mask>
<g mask="url(#mask1_46_134)">
<path d="M24.8099 9.71788C23.385 6.55607 20.2167 4.1424 16.8923 4.48205C13.4358 4.83525 10.7026 7.8797 9.0747 10.9952C7.16271 14.6558 6.49242 18.8219 6.27801 22.9688C6.27593 23.0072 6.33525 23.0173 6.34046 22.979C7.16479 16.6396 8.95605 7.70141 15.4664 5.52245C18.7846 4.41096 22.2214 6.56961 23.8232 9.73255C25.6332 13.304 24.9639 17.417 24.1084 21.1667C24.0865 21.2627 24.2114 21.3247 24.2583 21.2356C26.062 17.7849 26.4388 13.3333 24.8099 9.71788Z" fill="#683C1A"></path>
</g>
<mask id="mask2_46_134" style="mask-type:luminance" maskUnits="userSpaceOnUse" x="-1" y="0" width="52" height="58">
<path d="M-0.00012207 -3.16351e-06H50.0212V57.6878H-0.00012207V-3.16351e-06Z" fill="white"></path>
</mask>
<g mask="url(#mask2_46_134)">
<path d="M17.6426 40.2776C18.622 40.9614 19.6638 41.5278 20.7057 41.9544C21.02 42.083 21.3656 42.1993 21.7288 42.3031C21.224 42.2681 20.7119 42.1846 20.1759 42.0086C19.2694 41.5978 18.4232 40.9896 17.6426 40.2776ZM11.8993 18.4507C12.1397 16.9917 12.5904 15.1941 13.8966 14.4448C15.4037 13.5805 16.7089 14.2688 17.5832 15.4751C17.0868 15.0779 16.4664 14.9064 15.7149 15.132C13.7624 15.7199 13.4668 18.4044 13.3086 20.2234C12.8069 26.0088 14.3546 32.1248 17.9205 36.529C20.126 39.253 23.1579 41.2164 26.3595 41.3721C25.7547 41.5922 25.1375 41.7637 24.4298 41.7851C23.0559 41.8258 21.7143 41.4805 20.4486 40.9219C18.649 40.1275 16.7506 38.8727 15.1706 37.4125C14.7865 36.8653 14.4316 36.3101 14.1162 35.7718C13.9789 35.536 13.8487 35.2889 13.7176 35.0463C12.8662 32.8729 12.326 30.5224 11.9794 28.3457C11.4653 25.123 11.3695 21.6813 11.8993 18.4507ZM10.7107 26.7784C10.3599 24.7687 10.1236 22.5209 10.234 20.3543C10.2485 20.1264 10.2589 19.8962 10.2818 19.6694C10.286 19.6152 10.2902 19.5622 10.2954 19.508C10.3859 18.6606 10.5368 17.8278 10.7429 17.0154C10.8626 16.5832 11.0021 16.1623 11.1686 15.7583C12.0918 13.5263 14.4587 11.6904 16.6777 13.023C18.0225 13.8298 18.4128 15.2799 18.6147 16.7806C17.9132 14.5204 15.9627 12.6066 13.6375 13.9653C10.8335 15.6026 10.8907 20.7493 10.9188 23.6561C10.9407 25.8384 11.1769 28.0264 11.6172 30.1636C11.254 29.0623 10.9448 27.9305 10.7107 26.7784ZM38.4674 26.8912C36.6595 30.703 35.9226 34.8149 32.8032 37.7872C29.3144 41.1115 24.8284 41.2943 21.0127 38.4518C17.7206 35.9975 15.5734 32.0582 14.5284 27.935C13.9695 25.7323 13.728 23.4473 13.8279 21.1657C13.8831 19.912 13.9455 18.4733 14.4483 17.3189C14.6179 16.6983 14.9739 16.2153 15.5161 15.8678C16.2177 15.9874 16.9202 16.1047 17.6217 16.2243C18.1088 16.5516 18.4596 17.513 18.673 18.1878C18.5762 20.6251 18.8572 23.1302 19.0154 25.5574C19.1507 27.6506 19.2236 29.7766 19.6638 31.828C20.3102 34.8319 22.1639 38.2825 25.3103 38.5105C25.5351 38.5263 25.5476 38.1855 25.3603 38.1099C18.1984 35.2663 20.1083 25.167 19.1216 18.4913C19.133 18.471 19.1476 18.4563 19.1517 18.4259C19.5941 15.026 17.5291 10.87 13.8977 12.1305C9.65943 13.6008 9.47936 19.6536 9.69169 23.5985C9.96959 28.7508 11.459 34.174 14.3535 38.3322C14.6096 38.7012 14.9135 39.0826 15.2507 39.4629C16.4498 41.1938 18.0141 42.6077 19.9854 42.9429C20.8223 43.2746 21.6768 43.4518 22.5084 43.4236C25.1656 43.5612 28.1237 42.3471 30.3437 40.5777C30.4041 40.5484 30.4645 40.5292 30.5248 40.4987C35.0628 38.2408 38.2603 32.2467 38.6839 26.9544C38.6943 26.8303 38.5184 26.7829 38.4674 26.8912Z" fill="#683C1A"></path>
</g>
<mask id="mask3_46_134" style="mask-type:luminance" maskUnits="userSpaceOnUse" x="-1" y="0" width="52" height="58">
<path d="M-0.00012207 -3.16351e-06H50.0212V57.6878H-0.00012207V-3.16351e-06Z" fill="white"></path>
</mask>
<g mask="url(#mask3_46_134)">
<path d="M35.3458 44.0959C33.4328 44.9445 31.73 46.2828 29.8024 47.1291C27.7603 48.0228 25.5704 48.578 23.3607 48.5678C19.2765 48.5486 15.3724 46.5592 12.3613 43.6423C5.67398 37.1618 4.27511 27.0388 4.93292 17.796C4.93916 17.7136 4.82571 17.717 4.81634 17.796C3.71411 27.48 5.34508 38.3365 12.6225 44.9027C15.6326 47.6177 19.4097 49.3972 23.3607 49.4378C27.4303 49.4807 32.6636 47.6504 35.4613 44.3114C35.5332 44.2257 35.4645 44.044 35.3458 44.0959Z" fill="#683C1A"></path>
</g>
<mask id="mask4_46_134" style="mask-type:luminance" maskUnits="userSpaceOnUse" x="-1" y="0" width="52" height="58">
<path d="M-0.00012207 -3.16351e-06H50.0212V57.6878H-0.00012207V-3.16351e-06Z" fill="white"></path>
</mask>
<g mask="url(#mask4_46_134)">
<path d="M41.9144 21.3921C41.6105 18.9423 40.5551 16.268 38.2185 15.4239C35.6549 14.4998 33.0935 16.1303 31.373 18.0791C31.3095 18.1513 31.4063 18.2562 31.4739 18.1885C33.5337 16.1619 37.1652 14.7063 39.4571 17.1527C41.3274 19.1488 41.4721 22.569 41.1994 25.2152C40.5884 31.1484 37.2901 36.0152 34.2186 40.7489C34.1509 40.8527 34.3029 40.9791 34.3799 40.8843C38.7222 35.6259 42.8335 28.7967 41.9144 21.3921Z" fill="#683C1A"></path>
</g>
<mask id="mask5_46_134" style="mask-type:luminance" maskUnits="userSpaceOnUse" x="-1" y="0" width="52" height="58">
<path d="M-0.00012207 -3.16351e-06H50.0212V57.6878H-0.00012207V-3.16351e-06Z" fill="white"></path>
</mask>
<g mask="url(#mask5_46_134)">
<path d="M31.9936 18.0311C31.697 18.0311 31.697 18.5254 31.9936 18.5299C36.3089 18.5897 35.8655 25.877 35.2535 29.0016C34.6124 32.2773 32.8034 35.4335 29.6528 36.3453C26.3461 37.3033 23.7659 34.8039 22.8542 31.5315C21.9101 28.1395 22.6887 24.4992 22.7896 21.044C22.902 17.2288 23.0727 9.70572 18.7252 8.188C14.2268 6.61725 10.0645 12.8325 8.76452 16.6567C8.72289 16.7786 8.90191 16.8587 8.95707 16.7448C10.2581 14.0772 11.7756 11.4593 14.1175 9.72039C17.1109 7.49629 20.1147 8.72513 21.2638 12.3146C22.8958 17.4128 21.4615 22.7219 21.6093 27.9194C21.2784 25.1616 21.4053 22.2762 21.3991 19.2983C21.3918 15.8917 21.1295 10.2383 17.3222 9.18665C17.2577 9.16859 17.2108 9.27466 17.2753 9.30739C22.1329 11.7459 20.7496 19.8276 20.7475 24.4687C20.7455 28.4622 21.2128 33.3922 24.3394 36.035C24.4383 36.1185 24.5413 36.0767 24.5903 35.9943C25.5561 36.8621 26.75 37.4048 28.1624 37.3969C32.2528 37.3744 35.0391 33.4983 35.7833 29.4732C36.4244 26.0068 36.9199 18.0368 31.9936 18.0311Z" fill="#683C1A"></path>
</g>
<mask id="mask6_46_134" style="mask-type:luminance" maskUnits="userSpaceOnUse" x="-1" y="0" width="52" height="58">
<path d="M-0.00012207 -3.8147e-06H50.0212V57.6878H-0.00012207V-3.8147e-06Z" fill="white"></path>
</mask>
<g mask="url(#mask6_46_134)">
<path d="M28.3324 14.7703C28.3415 14.7703 28.3415 14.7519 28.3324 14.7519Z" fill="#683C1A"></path>
</g>
</g>
</svg></svg></g></g><defs><clipPath id="SvgjsClipPath1053"><rect width="1000" height="1000" x="0" y="0" rx="350" ry="350"></rect></clipPath></defs></svg>